G75*
G70*
%OFA0B0*%
%FSLAX24Y24*%
%IPPOS*%
%LPD*%
%AMOC8*
5,1,8,0,0,1.08239X$1,22.5*
%
%ADD10C,0.0000*%
D10*
X000150Y000857D02*
X000150Y016443D01*
X000152Y016493D01*
X000157Y016544D01*
X000166Y016593D01*
X000179Y016642D01*
X000195Y016690D01*
X000214Y016737D01*
X000236Y016782D01*
X000262Y016825D01*
X000291Y016867D01*
X000323Y016906D01*
X000357Y016943D01*
X000394Y016977D01*
X000433Y017009D01*
X000475Y017038D01*
X000518Y017064D01*
X000563Y017086D01*
X000610Y017105D01*
X000658Y017121D01*
X000707Y017134D01*
X000756Y017143D01*
X000807Y017148D01*
X000857Y017150D01*
X016443Y017150D01*
X016493Y017148D01*
X016544Y017143D01*
X016593Y017134D01*
X016642Y017121D01*
X016690Y017105D01*
X016737Y017086D01*
X016782Y017064D01*
X016825Y017038D01*
X016867Y017009D01*
X016906Y016977D01*
X016943Y016943D01*
X016977Y016906D01*
X017009Y016867D01*
X017038Y016825D01*
X017064Y016782D01*
X017086Y016737D01*
X017105Y016690D01*
X017121Y016642D01*
X017134Y016593D01*
X017143Y016544D01*
X017148Y016493D01*
X017150Y016443D01*
X017150Y000857D01*
X017148Y000807D01*
X017143Y000756D01*
X017134Y000707D01*
X017121Y000658D01*
X017105Y000610D01*
X017086Y000563D01*
X017064Y000518D01*
X017038Y000475D01*
X017009Y000433D01*
X016977Y000394D01*
X016943Y000357D01*
X016906Y000323D01*
X016867Y000291D01*
X016825Y000262D01*
X016782Y000236D01*
X016737Y000214D01*
X016690Y000195D01*
X016642Y000179D01*
X016593Y000166D01*
X016544Y000157D01*
X016493Y000152D01*
X016443Y000150D01*
X000857Y000150D01*
X000807Y000152D01*
X000756Y000157D01*
X000707Y000166D01*
X000658Y000179D01*
X000610Y000195D01*
X000563Y000214D01*
X000518Y000236D01*
X000475Y000262D01*
X000433Y000291D01*
X000394Y000323D01*
X000357Y000357D01*
X000323Y000394D01*
X000291Y000433D01*
X000262Y000475D01*
X000236Y000518D01*
X000214Y000563D01*
X000195Y000610D01*
X000179Y000658D01*
X000166Y000707D01*
X000157Y000756D01*
X000152Y000807D01*
X000150Y000857D01*
X000652Y001400D02*
X000654Y001455D01*
X000660Y001509D01*
X000670Y001563D01*
X000684Y001615D01*
X000701Y001667D01*
X000723Y001717D01*
X000748Y001766D01*
X000776Y001813D01*
X000808Y001857D01*
X000843Y001899D01*
X000881Y001938D01*
X000922Y001975D01*
X000965Y002008D01*
X001010Y002038D01*
X001058Y002065D01*
X001107Y002088D01*
X001158Y002108D01*
X001211Y002124D01*
X001264Y002136D01*
X001318Y002144D01*
X001373Y002148D01*
X001427Y002148D01*
X001482Y002144D01*
X001536Y002136D01*
X001589Y002124D01*
X001642Y002108D01*
X001693Y002088D01*
X001742Y002065D01*
X001790Y002038D01*
X001835Y002008D01*
X001878Y001975D01*
X001919Y001938D01*
X001957Y001899D01*
X001992Y001857D01*
X002024Y001813D01*
X002052Y001766D01*
X002077Y001717D01*
X002099Y001667D01*
X002116Y001615D01*
X002130Y001563D01*
X002140Y001509D01*
X002146Y001455D01*
X002148Y001400D01*
X002146Y001345D01*
X002140Y001291D01*
X002130Y001237D01*
X002116Y001185D01*
X002099Y001133D01*
X002077Y001083D01*
X002052Y001034D01*
X002024Y000987D01*
X001992Y000943D01*
X001957Y000901D01*
X001919Y000862D01*
X001878Y000825D01*
X001835Y000792D01*
X001790Y000762D01*
X001742Y000735D01*
X001693Y000712D01*
X001642Y000692D01*
X001589Y000676D01*
X001536Y000664D01*
X001482Y000656D01*
X001427Y000652D01*
X001373Y000652D01*
X001318Y000656D01*
X001264Y000664D01*
X001211Y000676D01*
X001158Y000692D01*
X001107Y000712D01*
X001058Y000735D01*
X001010Y000762D01*
X000965Y000792D01*
X000922Y000825D01*
X000881Y000862D01*
X000843Y000901D01*
X000808Y000943D01*
X000776Y000987D01*
X000748Y001034D01*
X000723Y001083D01*
X000701Y001133D01*
X000684Y001185D01*
X000670Y001237D01*
X000660Y001291D01*
X000654Y001345D01*
X000652Y001400D01*
X005506Y008650D02*
X005508Y008689D01*
X005514Y008728D01*
X005524Y008766D01*
X005537Y008803D01*
X005554Y008838D01*
X005574Y008872D01*
X005598Y008903D01*
X005625Y008932D01*
X005654Y008958D01*
X005686Y008981D01*
X005720Y009001D01*
X005756Y009017D01*
X005793Y009029D01*
X005832Y009038D01*
X005871Y009043D01*
X005910Y009044D01*
X005949Y009041D01*
X005988Y009034D01*
X006025Y009023D01*
X006062Y009009D01*
X006097Y008991D01*
X006130Y008970D01*
X006161Y008945D01*
X006189Y008918D01*
X006214Y008888D01*
X006236Y008855D01*
X006255Y008821D01*
X006270Y008785D01*
X006282Y008747D01*
X006290Y008709D01*
X006294Y008670D01*
X006294Y008630D01*
X006290Y008591D01*
X006282Y008553D01*
X006270Y008515D01*
X006255Y008479D01*
X006236Y008445D01*
X006214Y008412D01*
X006189Y008382D01*
X006161Y008355D01*
X006130Y008330D01*
X006097Y008309D01*
X006062Y008291D01*
X006025Y008277D01*
X005988Y008266D01*
X005949Y008259D01*
X005910Y008256D01*
X005871Y008257D01*
X005832Y008262D01*
X005793Y008271D01*
X005756Y008283D01*
X005720Y008299D01*
X005686Y008319D01*
X005654Y008342D01*
X005625Y008368D01*
X005598Y008397D01*
X005574Y008428D01*
X005554Y008462D01*
X005537Y008497D01*
X005524Y008534D01*
X005514Y008572D01*
X005508Y008611D01*
X005506Y008650D01*
X011006Y008650D02*
X011008Y008689D01*
X011014Y008728D01*
X011024Y008766D01*
X011037Y008803D01*
X011054Y008838D01*
X011074Y008872D01*
X011098Y008903D01*
X011125Y008932D01*
X011154Y008958D01*
X011186Y008981D01*
X011220Y009001D01*
X011256Y009017D01*
X011293Y009029D01*
X011332Y009038D01*
X011371Y009043D01*
X011410Y009044D01*
X011449Y009041D01*
X011488Y009034D01*
X011525Y009023D01*
X011562Y009009D01*
X011597Y008991D01*
X011630Y008970D01*
X011661Y008945D01*
X011689Y008918D01*
X011714Y008888D01*
X011736Y008855D01*
X011755Y008821D01*
X011770Y008785D01*
X011782Y008747D01*
X011790Y008709D01*
X011794Y008670D01*
X011794Y008630D01*
X011790Y008591D01*
X011782Y008553D01*
X011770Y008515D01*
X011755Y008479D01*
X011736Y008445D01*
X011714Y008412D01*
X011689Y008382D01*
X011661Y008355D01*
X011630Y008330D01*
X011597Y008309D01*
X011562Y008291D01*
X011525Y008277D01*
X011488Y008266D01*
X011449Y008259D01*
X011410Y008256D01*
X011371Y008257D01*
X011332Y008262D01*
X011293Y008271D01*
X011256Y008283D01*
X011220Y008299D01*
X011186Y008319D01*
X011154Y008342D01*
X011125Y008368D01*
X011098Y008397D01*
X011074Y008428D01*
X011054Y008462D01*
X011037Y008497D01*
X011024Y008534D01*
X011014Y008572D01*
X011008Y008611D01*
X011006Y008650D01*
X015152Y015900D02*
X015154Y015955D01*
X015160Y016009D01*
X015170Y016063D01*
X015184Y016115D01*
X015201Y016167D01*
X015223Y016217D01*
X015248Y016266D01*
X015276Y016313D01*
X015308Y016357D01*
X015343Y016399D01*
X015381Y016438D01*
X015422Y016475D01*
X015465Y016508D01*
X015510Y016538D01*
X015558Y016565D01*
X015607Y016588D01*
X015658Y016608D01*
X015711Y016624D01*
X015764Y016636D01*
X015818Y016644D01*
X015873Y016648D01*
X015927Y016648D01*
X015982Y016644D01*
X016036Y016636D01*
X016089Y016624D01*
X016142Y016608D01*
X016193Y016588D01*
X016242Y016565D01*
X016290Y016538D01*
X016335Y016508D01*
X016378Y016475D01*
X016419Y016438D01*
X016457Y016399D01*
X016492Y016357D01*
X016524Y016313D01*
X016552Y016266D01*
X016577Y016217D01*
X016599Y016167D01*
X016616Y016115D01*
X016630Y016063D01*
X016640Y016009D01*
X016646Y015955D01*
X016648Y015900D01*
X016646Y015845D01*
X016640Y015791D01*
X016630Y015737D01*
X016616Y015685D01*
X016599Y015633D01*
X016577Y015583D01*
X016552Y015534D01*
X016524Y015487D01*
X016492Y015443D01*
X016457Y015401D01*
X016419Y015362D01*
X016378Y015325D01*
X016335Y015292D01*
X016290Y015262D01*
X016242Y015235D01*
X016193Y015212D01*
X016142Y015192D01*
X016089Y015176D01*
X016036Y015164D01*
X015982Y015156D01*
X015927Y015152D01*
X015873Y015152D01*
X015818Y015156D01*
X015764Y015164D01*
X015711Y015176D01*
X015658Y015192D01*
X015607Y015212D01*
X015558Y015235D01*
X015510Y015262D01*
X015465Y015292D01*
X015422Y015325D01*
X015381Y015362D01*
X015343Y015401D01*
X015308Y015443D01*
X015276Y015487D01*
X015248Y015534D01*
X015223Y015583D01*
X015201Y015633D01*
X015184Y015685D01*
X015170Y015737D01*
X015160Y015791D01*
X015154Y015845D01*
X015152Y015900D01*
X000652Y015900D02*
X000654Y015955D01*
X000660Y016009D01*
X000670Y016063D01*
X000684Y016115D01*
X000701Y016167D01*
X000723Y016217D01*
X000748Y016266D01*
X000776Y016313D01*
X000808Y016357D01*
X000843Y016399D01*
X000881Y016438D01*
X000922Y016475D01*
X000965Y016508D01*
X001010Y016538D01*
X001058Y016565D01*
X001107Y016588D01*
X001158Y016608D01*
X001211Y016624D01*
X001264Y016636D01*
X001318Y016644D01*
X001373Y016648D01*
X001427Y016648D01*
X001482Y016644D01*
X001536Y016636D01*
X001589Y016624D01*
X001642Y016608D01*
X001693Y016588D01*
X001742Y016565D01*
X001790Y016538D01*
X001835Y016508D01*
X001878Y016475D01*
X001919Y016438D01*
X001957Y016399D01*
X001992Y016357D01*
X002024Y016313D01*
X002052Y016266D01*
X002077Y016217D01*
X002099Y016167D01*
X002116Y016115D01*
X002130Y016063D01*
X002140Y016009D01*
X002146Y015955D01*
X002148Y015900D01*
X002146Y015845D01*
X002140Y015791D01*
X002130Y015737D01*
X002116Y015685D01*
X002099Y015633D01*
X002077Y015583D01*
X002052Y015534D01*
X002024Y015487D01*
X001992Y015443D01*
X001957Y015401D01*
X001919Y015362D01*
X001878Y015325D01*
X001835Y015292D01*
X001790Y015262D01*
X001742Y015235D01*
X001693Y015212D01*
X001642Y015192D01*
X001589Y015176D01*
X001536Y015164D01*
X001482Y015156D01*
X001427Y015152D01*
X001373Y015152D01*
X001318Y015156D01*
X001264Y015164D01*
X001211Y015176D01*
X001158Y015192D01*
X001107Y015212D01*
X001058Y015235D01*
X001010Y015262D01*
X000965Y015292D01*
X000922Y015325D01*
X000881Y015362D01*
X000843Y015401D01*
X000808Y015443D01*
X000776Y015487D01*
X000748Y015534D01*
X000723Y015583D01*
X000701Y015633D01*
X000684Y015685D01*
X000670Y015737D01*
X000660Y015791D01*
X000654Y015845D01*
X000652Y015900D01*
X015152Y001400D02*
X015154Y001455D01*
X015160Y001509D01*
X015170Y001563D01*
X015184Y001615D01*
X015201Y001667D01*
X015223Y001717D01*
X015248Y001766D01*
X015276Y001813D01*
X015308Y001857D01*
X015343Y001899D01*
X015381Y001938D01*
X015422Y001975D01*
X015465Y002008D01*
X015510Y002038D01*
X015558Y002065D01*
X015607Y002088D01*
X015658Y002108D01*
X015711Y002124D01*
X015764Y002136D01*
X015818Y002144D01*
X015873Y002148D01*
X015927Y002148D01*
X015982Y002144D01*
X016036Y002136D01*
X016089Y002124D01*
X016142Y002108D01*
X016193Y002088D01*
X016242Y002065D01*
X016290Y002038D01*
X016335Y002008D01*
X016378Y001975D01*
X016419Y001938D01*
X016457Y001899D01*
X016492Y001857D01*
X016524Y001813D01*
X016552Y001766D01*
X016577Y001717D01*
X016599Y001667D01*
X016616Y001615D01*
X016630Y001563D01*
X016640Y001509D01*
X016646Y001455D01*
X016648Y001400D01*
X016646Y001345D01*
X016640Y001291D01*
X016630Y001237D01*
X016616Y001185D01*
X016599Y001133D01*
X016577Y001083D01*
X016552Y001034D01*
X016524Y000987D01*
X016492Y000943D01*
X016457Y000901D01*
X016419Y000862D01*
X016378Y000825D01*
X016335Y000792D01*
X016290Y000762D01*
X016242Y000735D01*
X016193Y000712D01*
X016142Y000692D01*
X016089Y000676D01*
X016036Y000664D01*
X015982Y000656D01*
X015927Y000652D01*
X015873Y000652D01*
X015818Y000656D01*
X015764Y000664D01*
X015711Y000676D01*
X015658Y000692D01*
X015607Y000712D01*
X015558Y000735D01*
X015510Y000762D01*
X015465Y000792D01*
X015422Y000825D01*
X015381Y000862D01*
X015343Y000901D01*
X015308Y000943D01*
X015276Y000987D01*
X015248Y001034D01*
X015223Y001083D01*
X015201Y001133D01*
X015184Y001185D01*
X015170Y001237D01*
X015160Y001291D01*
X015154Y001345D01*
X015152Y001400D01*
M02*
