%
M48
M72
T01C0.0120
T02C0.0320
T03C0.0400
T04C0.0440
T05C0.0787
T06C0.1495
%
T01
X5150Y11650
X4150Y12900
X4650Y8150
X3275Y5650
X2400Y14900
X11150Y14275
X12150Y11650
X14775Y8025
X12650Y8150
X9900Y2650
X5650Y3400
X2775Y5275
X2650Y9775
X3525Y13275
X14150Y11275
X15400Y8025
X7900Y14650
X11150Y15025
X12775Y4150
X10025Y2025
T02
X10025Y12150
X9025Y12150
T03
X9650Y8100
X9650Y7100
X8650Y8200
X8650Y7200
X7650Y8100
X7650Y7100
X7370Y5275
X9930Y5275
T04
X11400Y7088
X5900Y7088
T05
X5900Y8650
X11400Y8650
T06
X1400Y15900
X15900Y15900
X1400Y1400
X15900Y1400
M30
