G75*
G70*
%OFA0B0*%
%FSLAX24Y24*%
%IPPOS*%
%LPD*%
%AMOC8*
5,1,8,0,0,1.08239X$1,22.5*
%
%ADD10C,0.0000*%
%ADD11C,0.0040*%
%ADD12C,0.0060*%
%ADD13C,0.0050*%
%ADD14C,0.0030*%
%ADD15C,0.0020*%
%ADD16C,0.0080*%
%ADD17C,0.0070*%
%ADD18C,0.0100*%
%ADD19C,0.0240*%
D10*
X000150Y000857D02*
X000150Y016443D01*
X000152Y016493D01*
X000157Y016544D01*
X000166Y016593D01*
X000179Y016642D01*
X000195Y016690D01*
X000214Y016737D01*
X000236Y016782D01*
X000262Y016825D01*
X000291Y016867D01*
X000323Y016906D01*
X000357Y016943D01*
X000394Y016977D01*
X000433Y017009D01*
X000475Y017038D01*
X000518Y017064D01*
X000563Y017086D01*
X000610Y017105D01*
X000658Y017121D01*
X000707Y017134D01*
X000756Y017143D01*
X000807Y017148D01*
X000857Y017150D01*
X016443Y017150D01*
X016493Y017148D01*
X016544Y017143D01*
X016593Y017134D01*
X016642Y017121D01*
X016690Y017105D01*
X016737Y017086D01*
X016782Y017064D01*
X016825Y017038D01*
X016867Y017009D01*
X016906Y016977D01*
X016943Y016943D01*
X016977Y016906D01*
X017009Y016867D01*
X017038Y016825D01*
X017064Y016782D01*
X017086Y016737D01*
X017105Y016690D01*
X017121Y016642D01*
X017134Y016593D01*
X017143Y016544D01*
X017148Y016493D01*
X017150Y016443D01*
X017150Y000857D01*
X017148Y000807D01*
X017143Y000756D01*
X017134Y000707D01*
X017121Y000658D01*
X017105Y000610D01*
X017086Y000563D01*
X017064Y000518D01*
X017038Y000475D01*
X017009Y000433D01*
X016977Y000394D01*
X016943Y000357D01*
X016906Y000323D01*
X016867Y000291D01*
X016825Y000262D01*
X016782Y000236D01*
X016737Y000214D01*
X016690Y000195D01*
X016642Y000179D01*
X016593Y000166D01*
X016544Y000157D01*
X016493Y000152D01*
X016443Y000150D01*
X000857Y000150D01*
X000807Y000152D01*
X000756Y000157D01*
X000707Y000166D01*
X000658Y000179D01*
X000610Y000195D01*
X000563Y000214D01*
X000518Y000236D01*
X000475Y000262D01*
X000433Y000291D01*
X000394Y000323D01*
X000357Y000357D01*
X000323Y000394D01*
X000291Y000433D01*
X000262Y000475D01*
X000236Y000518D01*
X000214Y000563D01*
X000195Y000610D01*
X000179Y000658D01*
X000166Y000707D01*
X000157Y000756D01*
X000152Y000807D01*
X000150Y000857D01*
X000652Y001400D02*
X000654Y001455D01*
X000660Y001509D01*
X000670Y001563D01*
X000684Y001615D01*
X000701Y001667D01*
X000723Y001717D01*
X000748Y001766D01*
X000776Y001813D01*
X000808Y001857D01*
X000843Y001899D01*
X000881Y001938D01*
X000922Y001975D01*
X000965Y002008D01*
X001010Y002038D01*
X001058Y002065D01*
X001107Y002088D01*
X001158Y002108D01*
X001211Y002124D01*
X001264Y002136D01*
X001318Y002144D01*
X001373Y002148D01*
X001427Y002148D01*
X001482Y002144D01*
X001536Y002136D01*
X001589Y002124D01*
X001642Y002108D01*
X001693Y002088D01*
X001742Y002065D01*
X001790Y002038D01*
X001835Y002008D01*
X001878Y001975D01*
X001919Y001938D01*
X001957Y001899D01*
X001992Y001857D01*
X002024Y001813D01*
X002052Y001766D01*
X002077Y001717D01*
X002099Y001667D01*
X002116Y001615D01*
X002130Y001563D01*
X002140Y001509D01*
X002146Y001455D01*
X002148Y001400D01*
X002146Y001345D01*
X002140Y001291D01*
X002130Y001237D01*
X002116Y001185D01*
X002099Y001133D01*
X002077Y001083D01*
X002052Y001034D01*
X002024Y000987D01*
X001992Y000943D01*
X001957Y000901D01*
X001919Y000862D01*
X001878Y000825D01*
X001835Y000792D01*
X001790Y000762D01*
X001742Y000735D01*
X001693Y000712D01*
X001642Y000692D01*
X001589Y000676D01*
X001536Y000664D01*
X001482Y000656D01*
X001427Y000652D01*
X001373Y000652D01*
X001318Y000656D01*
X001264Y000664D01*
X001211Y000676D01*
X001158Y000692D01*
X001107Y000712D01*
X001058Y000735D01*
X001010Y000762D01*
X000965Y000792D01*
X000922Y000825D01*
X000881Y000862D01*
X000843Y000901D01*
X000808Y000943D01*
X000776Y000987D01*
X000748Y001034D01*
X000723Y001083D01*
X000701Y001133D01*
X000684Y001185D01*
X000670Y001237D01*
X000660Y001291D01*
X000654Y001345D01*
X000652Y001400D01*
X005506Y008650D02*
X005508Y008689D01*
X005514Y008728D01*
X005524Y008766D01*
X005537Y008803D01*
X005554Y008838D01*
X005574Y008872D01*
X005598Y008903D01*
X005625Y008932D01*
X005654Y008958D01*
X005686Y008981D01*
X005720Y009001D01*
X005756Y009017D01*
X005793Y009029D01*
X005832Y009038D01*
X005871Y009043D01*
X005910Y009044D01*
X005949Y009041D01*
X005988Y009034D01*
X006025Y009023D01*
X006062Y009009D01*
X006097Y008991D01*
X006130Y008970D01*
X006161Y008945D01*
X006189Y008918D01*
X006214Y008888D01*
X006236Y008855D01*
X006255Y008821D01*
X006270Y008785D01*
X006282Y008747D01*
X006290Y008709D01*
X006294Y008670D01*
X006294Y008630D01*
X006290Y008591D01*
X006282Y008553D01*
X006270Y008515D01*
X006255Y008479D01*
X006236Y008445D01*
X006214Y008412D01*
X006189Y008382D01*
X006161Y008355D01*
X006130Y008330D01*
X006097Y008309D01*
X006062Y008291D01*
X006025Y008277D01*
X005988Y008266D01*
X005949Y008259D01*
X005910Y008256D01*
X005871Y008257D01*
X005832Y008262D01*
X005793Y008271D01*
X005756Y008283D01*
X005720Y008299D01*
X005686Y008319D01*
X005654Y008342D01*
X005625Y008368D01*
X005598Y008397D01*
X005574Y008428D01*
X005554Y008462D01*
X005537Y008497D01*
X005524Y008534D01*
X005514Y008572D01*
X005508Y008611D01*
X005506Y008650D01*
X011006Y008650D02*
X011008Y008689D01*
X011014Y008728D01*
X011024Y008766D01*
X011037Y008803D01*
X011054Y008838D01*
X011074Y008872D01*
X011098Y008903D01*
X011125Y008932D01*
X011154Y008958D01*
X011186Y008981D01*
X011220Y009001D01*
X011256Y009017D01*
X011293Y009029D01*
X011332Y009038D01*
X011371Y009043D01*
X011410Y009044D01*
X011449Y009041D01*
X011488Y009034D01*
X011525Y009023D01*
X011562Y009009D01*
X011597Y008991D01*
X011630Y008970D01*
X011661Y008945D01*
X011689Y008918D01*
X011714Y008888D01*
X011736Y008855D01*
X011755Y008821D01*
X011770Y008785D01*
X011782Y008747D01*
X011790Y008709D01*
X011794Y008670D01*
X011794Y008630D01*
X011790Y008591D01*
X011782Y008553D01*
X011770Y008515D01*
X011755Y008479D01*
X011736Y008445D01*
X011714Y008412D01*
X011689Y008382D01*
X011661Y008355D01*
X011630Y008330D01*
X011597Y008309D01*
X011562Y008291D01*
X011525Y008277D01*
X011488Y008266D01*
X011449Y008259D01*
X011410Y008256D01*
X011371Y008257D01*
X011332Y008262D01*
X011293Y008271D01*
X011256Y008283D01*
X011220Y008299D01*
X011186Y008319D01*
X011154Y008342D01*
X011125Y008368D01*
X011098Y008397D01*
X011074Y008428D01*
X011054Y008462D01*
X011037Y008497D01*
X011024Y008534D01*
X011014Y008572D01*
X011008Y008611D01*
X011006Y008650D01*
X015152Y015900D02*
X015154Y015955D01*
X015160Y016009D01*
X015170Y016063D01*
X015184Y016115D01*
X015201Y016167D01*
X015223Y016217D01*
X015248Y016266D01*
X015276Y016313D01*
X015308Y016357D01*
X015343Y016399D01*
X015381Y016438D01*
X015422Y016475D01*
X015465Y016508D01*
X015510Y016538D01*
X015558Y016565D01*
X015607Y016588D01*
X015658Y016608D01*
X015711Y016624D01*
X015764Y016636D01*
X015818Y016644D01*
X015873Y016648D01*
X015927Y016648D01*
X015982Y016644D01*
X016036Y016636D01*
X016089Y016624D01*
X016142Y016608D01*
X016193Y016588D01*
X016242Y016565D01*
X016290Y016538D01*
X016335Y016508D01*
X016378Y016475D01*
X016419Y016438D01*
X016457Y016399D01*
X016492Y016357D01*
X016524Y016313D01*
X016552Y016266D01*
X016577Y016217D01*
X016599Y016167D01*
X016616Y016115D01*
X016630Y016063D01*
X016640Y016009D01*
X016646Y015955D01*
X016648Y015900D01*
X016646Y015845D01*
X016640Y015791D01*
X016630Y015737D01*
X016616Y015685D01*
X016599Y015633D01*
X016577Y015583D01*
X016552Y015534D01*
X016524Y015487D01*
X016492Y015443D01*
X016457Y015401D01*
X016419Y015362D01*
X016378Y015325D01*
X016335Y015292D01*
X016290Y015262D01*
X016242Y015235D01*
X016193Y015212D01*
X016142Y015192D01*
X016089Y015176D01*
X016036Y015164D01*
X015982Y015156D01*
X015927Y015152D01*
X015873Y015152D01*
X015818Y015156D01*
X015764Y015164D01*
X015711Y015176D01*
X015658Y015192D01*
X015607Y015212D01*
X015558Y015235D01*
X015510Y015262D01*
X015465Y015292D01*
X015422Y015325D01*
X015381Y015362D01*
X015343Y015401D01*
X015308Y015443D01*
X015276Y015487D01*
X015248Y015534D01*
X015223Y015583D01*
X015201Y015633D01*
X015184Y015685D01*
X015170Y015737D01*
X015160Y015791D01*
X015154Y015845D01*
X015152Y015900D01*
X000652Y015900D02*
X000654Y015955D01*
X000660Y016009D01*
X000670Y016063D01*
X000684Y016115D01*
X000701Y016167D01*
X000723Y016217D01*
X000748Y016266D01*
X000776Y016313D01*
X000808Y016357D01*
X000843Y016399D01*
X000881Y016438D01*
X000922Y016475D01*
X000965Y016508D01*
X001010Y016538D01*
X001058Y016565D01*
X001107Y016588D01*
X001158Y016608D01*
X001211Y016624D01*
X001264Y016636D01*
X001318Y016644D01*
X001373Y016648D01*
X001427Y016648D01*
X001482Y016644D01*
X001536Y016636D01*
X001589Y016624D01*
X001642Y016608D01*
X001693Y016588D01*
X001742Y016565D01*
X001790Y016538D01*
X001835Y016508D01*
X001878Y016475D01*
X001919Y016438D01*
X001957Y016399D01*
X001992Y016357D01*
X002024Y016313D01*
X002052Y016266D01*
X002077Y016217D01*
X002099Y016167D01*
X002116Y016115D01*
X002130Y016063D01*
X002140Y016009D01*
X002146Y015955D01*
X002148Y015900D01*
X002146Y015845D01*
X002140Y015791D01*
X002130Y015737D01*
X002116Y015685D01*
X002099Y015633D01*
X002077Y015583D01*
X002052Y015534D01*
X002024Y015487D01*
X001992Y015443D01*
X001957Y015401D01*
X001919Y015362D01*
X001878Y015325D01*
X001835Y015292D01*
X001790Y015262D01*
X001742Y015235D01*
X001693Y015212D01*
X001642Y015192D01*
X001589Y015176D01*
X001536Y015164D01*
X001482Y015156D01*
X001427Y015152D01*
X001373Y015152D01*
X001318Y015156D01*
X001264Y015164D01*
X001211Y015176D01*
X001158Y015192D01*
X001107Y015212D01*
X001058Y015235D01*
X001010Y015262D01*
X000965Y015292D01*
X000922Y015325D01*
X000881Y015362D01*
X000843Y015401D01*
X000808Y015443D01*
X000776Y015487D01*
X000748Y015534D01*
X000723Y015583D01*
X000701Y015633D01*
X000684Y015685D01*
X000670Y015737D01*
X000660Y015791D01*
X000654Y015845D01*
X000652Y015900D01*
X015152Y001400D02*
X015154Y001455D01*
X015160Y001509D01*
X015170Y001563D01*
X015184Y001615D01*
X015201Y001667D01*
X015223Y001717D01*
X015248Y001766D01*
X015276Y001813D01*
X015308Y001857D01*
X015343Y001899D01*
X015381Y001938D01*
X015422Y001975D01*
X015465Y002008D01*
X015510Y002038D01*
X015558Y002065D01*
X015607Y002088D01*
X015658Y002108D01*
X015711Y002124D01*
X015764Y002136D01*
X015818Y002144D01*
X015873Y002148D01*
X015927Y002148D01*
X015982Y002144D01*
X016036Y002136D01*
X016089Y002124D01*
X016142Y002108D01*
X016193Y002088D01*
X016242Y002065D01*
X016290Y002038D01*
X016335Y002008D01*
X016378Y001975D01*
X016419Y001938D01*
X016457Y001899D01*
X016492Y001857D01*
X016524Y001813D01*
X016552Y001766D01*
X016577Y001717D01*
X016599Y001667D01*
X016616Y001615D01*
X016630Y001563D01*
X016640Y001509D01*
X016646Y001455D01*
X016648Y001400D01*
X016646Y001345D01*
X016640Y001291D01*
X016630Y001237D01*
X016616Y001185D01*
X016599Y001133D01*
X016577Y001083D01*
X016552Y001034D01*
X016524Y000987D01*
X016492Y000943D01*
X016457Y000901D01*
X016419Y000862D01*
X016378Y000825D01*
X016335Y000792D01*
X016290Y000762D01*
X016242Y000735D01*
X016193Y000712D01*
X016142Y000692D01*
X016089Y000676D01*
X016036Y000664D01*
X015982Y000656D01*
X015927Y000652D01*
X015873Y000652D01*
X015818Y000656D01*
X015764Y000664D01*
X015711Y000676D01*
X015658Y000692D01*
X015607Y000712D01*
X015558Y000735D01*
X015510Y000762D01*
X015465Y000792D01*
X015422Y000825D01*
X015381Y000862D01*
X015343Y000901D01*
X015308Y000943D01*
X015276Y000987D01*
X015248Y001034D01*
X015223Y001083D01*
X015201Y001133D01*
X015184Y001185D01*
X015170Y001237D01*
X015160Y001291D01*
X015154Y001345D01*
X015152Y001400D01*
D11*
X009380Y009323D02*
X009073Y009170D01*
X009073Y009477D02*
X009380Y009323D01*
X009303Y009630D02*
X009380Y009707D01*
X009380Y009861D01*
X009303Y009937D01*
X009227Y009937D01*
X009150Y009861D01*
X009073Y009937D01*
X008996Y009937D01*
X008920Y009861D01*
X008920Y009707D01*
X008996Y009630D01*
X009150Y009784D02*
X009150Y009861D01*
D12*
X009650Y008150D02*
X007650Y008150D01*
X006650Y008150D01*
X006650Y012150D01*
X007650Y012150D01*
X008250Y012150D01*
X008252Y012111D01*
X008258Y012072D01*
X008267Y012034D01*
X008280Y011997D01*
X008297Y011961D01*
X008317Y011928D01*
X008341Y011896D01*
X008367Y011867D01*
X008396Y011841D01*
X008428Y011817D01*
X008461Y011797D01*
X008497Y011780D01*
X008534Y011767D01*
X008572Y011758D01*
X008611Y011752D01*
X008650Y011750D01*
X008689Y011752D01*
X008728Y011758D01*
X008766Y011767D01*
X008803Y011780D01*
X008839Y011797D01*
X008872Y011817D01*
X008904Y011841D01*
X008933Y011867D01*
X008959Y011896D01*
X008983Y011928D01*
X009003Y011961D01*
X009020Y011997D01*
X009033Y012034D01*
X009042Y012072D01*
X009048Y012111D01*
X009050Y012150D01*
X009650Y012150D01*
X009650Y008150D01*
X010650Y008150D01*
X010650Y012150D01*
X009650Y012150D01*
X010900Y011500D02*
X010900Y009800D01*
X010902Y009783D01*
X010906Y009766D01*
X010913Y009750D01*
X010923Y009736D01*
X010936Y009723D01*
X010950Y009713D01*
X010966Y009706D01*
X010983Y009702D01*
X011000Y009700D01*
X011800Y009700D01*
X011817Y009702D01*
X011834Y009706D01*
X011850Y009713D01*
X011864Y009723D01*
X011877Y009736D01*
X011887Y009750D01*
X011894Y009766D01*
X011898Y009783D01*
X011900Y009800D01*
X011900Y011500D01*
X011898Y011517D01*
X011894Y011534D01*
X011887Y011550D01*
X011877Y011564D01*
X011864Y011577D01*
X011850Y011587D01*
X011834Y011594D01*
X011817Y011598D01*
X011800Y011600D01*
X011000Y011600D01*
X010983Y011598D01*
X010966Y011594D01*
X010950Y011587D01*
X010936Y011577D01*
X010923Y011564D01*
X010913Y011550D01*
X010906Y011534D01*
X010902Y011517D01*
X010900Y011500D01*
X011400Y010800D02*
X011400Y010750D01*
X011400Y010550D02*
X011400Y010500D01*
X011868Y012305D02*
X011956Y012426D01*
X011945Y012496D01*
X013062Y014033D01*
X013132Y014045D01*
X013220Y014166D01*
X013229Y014181D01*
X013235Y014197D01*
X013238Y014215D01*
X013239Y014232D01*
X013236Y014249D01*
X013230Y014266D01*
X013222Y014281D01*
X013211Y014294D01*
X013198Y014306D01*
X012632Y014717D02*
X012615Y014727D01*
X012596Y014733D01*
X012577Y014736D01*
X012557Y014735D01*
X012538Y014730D01*
X012521Y014721D01*
X012505Y014709D01*
X012492Y014695D01*
X012404Y014574D01*
X012415Y014504D01*
X011298Y012967D01*
X011228Y012955D01*
X011140Y012834D01*
X011131Y012819D01*
X011125Y012803D01*
X011122Y012785D01*
X011121Y012768D01*
X011124Y012751D01*
X011130Y012734D01*
X011138Y012719D01*
X011149Y012706D01*
X011162Y012694D01*
X011728Y012283D02*
X011743Y012274D01*
X011759Y012268D01*
X011777Y012265D01*
X011794Y012264D01*
X011811Y012267D01*
X011828Y012273D01*
X011843Y012281D01*
X011856Y012292D01*
X011868Y012305D01*
X015680Y013000D02*
X016107Y013000D01*
X016000Y012680D02*
X016000Y013321D01*
X015680Y013000D01*
X013548Y007537D02*
X013405Y007583D01*
X013386Y007587D01*
X013366Y007588D01*
X013347Y007584D01*
X013329Y007577D01*
X013312Y007567D01*
X013298Y007553D01*
X013287Y007537D01*
X013279Y007519D01*
X013548Y007537D02*
X013580Y007474D01*
X015387Y006887D01*
X015450Y006919D01*
X015593Y006873D01*
X015609Y006866D01*
X015624Y006857D01*
X015636Y006845D01*
X015647Y006831D01*
X015655Y006815D01*
X015660Y006799D01*
X015662Y006781D01*
X015661Y006764D01*
X015657Y006747D01*
X015441Y006081D02*
X015434Y006065D01*
X015425Y006050D01*
X015413Y006038D01*
X015399Y006027D01*
X015383Y006019D01*
X015367Y006014D01*
X015349Y006012D01*
X015332Y006013D01*
X015315Y006017D01*
X015172Y006063D01*
X015140Y006126D01*
X013333Y006713D01*
X013270Y006681D01*
X013127Y006727D01*
X013111Y006734D01*
X013096Y006743D01*
X013084Y006755D01*
X013073Y006769D01*
X013065Y006785D01*
X013060Y006801D01*
X013058Y006819D01*
X013059Y006836D01*
X013063Y006853D01*
X014680Y004821D02*
X014680Y004500D01*
X014894Y004607D01*
X015000Y004607D01*
X015107Y004500D01*
X015107Y004287D01*
X015000Y004180D01*
X014787Y004180D01*
X014680Y004287D01*
X014680Y004821D02*
X015107Y004821D01*
X009950Y006475D02*
X009950Y007075D01*
X009850Y007075D01*
X009850Y007175D01*
X009850Y006475D02*
X009850Y006375D01*
X009850Y006475D02*
X009950Y006475D01*
X009500Y005575D02*
X009100Y005575D01*
X008150Y005575D01*
X007800Y005575D01*
X007450Y006375D02*
X007450Y006475D01*
X007350Y006475D01*
X007350Y007075D01*
X007450Y007075D01*
X007450Y007175D01*
X007800Y007975D02*
X008150Y007975D01*
X009150Y007975D01*
X009500Y007975D01*
X008550Y006775D02*
X008552Y006795D01*
X008558Y006813D01*
X008567Y006831D01*
X008579Y006846D01*
X008594Y006858D01*
X008612Y006867D01*
X008630Y006873D01*
X008650Y006875D01*
X008670Y006873D01*
X008688Y006867D01*
X008706Y006858D01*
X008721Y006846D01*
X008733Y006831D01*
X008742Y006813D01*
X008748Y006795D01*
X008750Y006775D01*
X008748Y006755D01*
X008742Y006737D01*
X008733Y006719D01*
X008721Y006704D01*
X008706Y006692D01*
X008688Y006683D01*
X008670Y006677D01*
X008650Y006675D01*
X008630Y006677D01*
X008612Y006683D01*
X008594Y006692D01*
X008579Y006704D01*
X008567Y006719D01*
X008558Y006737D01*
X008552Y006755D01*
X008550Y006775D01*
X007950Y006775D02*
X007952Y006827D01*
X007958Y006879D01*
X007968Y006931D01*
X007981Y006981D01*
X007998Y007031D01*
X008019Y007079D01*
X008044Y007125D01*
X008072Y007169D01*
X008103Y007211D01*
X008137Y007251D01*
X008174Y007288D01*
X008214Y007322D01*
X008256Y007353D01*
X008300Y007381D01*
X008346Y007406D01*
X008394Y007427D01*
X008444Y007444D01*
X008494Y007457D01*
X008546Y007467D01*
X008598Y007473D01*
X008650Y007475D01*
X008702Y007473D01*
X008754Y007467D01*
X008806Y007457D01*
X008856Y007444D01*
X008906Y007427D01*
X008954Y007406D01*
X009000Y007381D01*
X009044Y007353D01*
X009086Y007322D01*
X009126Y007288D01*
X009163Y007251D01*
X009197Y007211D01*
X009228Y007169D01*
X009256Y007125D01*
X009281Y007079D01*
X009302Y007031D01*
X009319Y006981D01*
X009332Y006931D01*
X009342Y006879D01*
X009348Y006827D01*
X009350Y006775D01*
X009348Y006723D01*
X009342Y006671D01*
X009332Y006619D01*
X009319Y006569D01*
X009302Y006519D01*
X009281Y006471D01*
X009256Y006425D01*
X009228Y006381D01*
X009197Y006339D01*
X009163Y006299D01*
X009126Y006262D01*
X009086Y006228D01*
X009044Y006197D01*
X009000Y006169D01*
X008954Y006144D01*
X008906Y006123D01*
X008856Y006106D01*
X008806Y006093D01*
X008754Y006083D01*
X008702Y006077D01*
X008650Y006075D01*
X008598Y006077D01*
X008546Y006083D01*
X008494Y006093D01*
X008444Y006106D01*
X008394Y006123D01*
X008346Y006144D01*
X008300Y006169D01*
X008256Y006197D01*
X008214Y006228D01*
X008174Y006262D01*
X008137Y006299D01*
X008103Y006339D01*
X008072Y006381D01*
X008044Y006425D01*
X008019Y006471D01*
X007998Y006519D01*
X007981Y006569D01*
X007968Y006619D01*
X007958Y006671D01*
X007952Y006723D01*
X007950Y006775D01*
X007650Y008150D02*
X007650Y012150D01*
X006160Y012834D02*
X006072Y012955D01*
X006002Y012967D01*
X004885Y014504D01*
X004896Y014574D01*
X004808Y014695D01*
X004796Y014708D01*
X004783Y014719D01*
X004768Y014727D01*
X004751Y014733D01*
X004734Y014736D01*
X004717Y014735D01*
X004699Y014732D01*
X004683Y014726D01*
X004668Y014717D01*
X004102Y014306D02*
X004089Y014294D01*
X004078Y014281D01*
X004070Y014266D01*
X004064Y014249D01*
X004061Y014232D01*
X004062Y014215D01*
X004065Y014197D01*
X004071Y014181D01*
X004080Y014166D01*
X004168Y014045D01*
X004238Y014033D01*
X005355Y012496D01*
X005344Y012426D01*
X005432Y012305D01*
X005444Y012292D01*
X005457Y012281D01*
X005472Y012273D01*
X005489Y012267D01*
X005506Y012264D01*
X005523Y012265D01*
X005541Y012268D01*
X005557Y012274D01*
X005572Y012283D01*
X006138Y012694D02*
X006151Y012706D01*
X006162Y012719D01*
X006170Y012734D01*
X006176Y012751D01*
X006179Y012768D01*
X006178Y012785D01*
X006175Y012803D01*
X006169Y012819D01*
X006160Y012834D01*
X005400Y010150D02*
X005402Y010194D01*
X005408Y010238D01*
X005418Y010281D01*
X005431Y010323D01*
X005448Y010364D01*
X005469Y010403D01*
X005493Y010440D01*
X005520Y010475D01*
X005550Y010507D01*
X005583Y010537D01*
X005619Y010563D01*
X005656Y010587D01*
X005696Y010606D01*
X005737Y010623D01*
X005780Y010635D01*
X005823Y010644D01*
X005867Y010649D01*
X005911Y010650D01*
X005955Y010647D01*
X005999Y010640D01*
X006042Y010629D01*
X006084Y010615D01*
X006124Y010597D01*
X006163Y010575D01*
X006199Y010551D01*
X006233Y010523D01*
X006265Y010492D01*
X006294Y010458D01*
X006320Y010422D01*
X006342Y010384D01*
X006361Y010344D01*
X006376Y010302D01*
X006388Y010260D01*
X006396Y010216D01*
X006400Y010172D01*
X006400Y010128D01*
X006396Y010084D01*
X006388Y010040D01*
X006376Y009998D01*
X006361Y009956D01*
X006342Y009916D01*
X006320Y009878D01*
X006294Y009842D01*
X006265Y009808D01*
X006233Y009777D01*
X006199Y009749D01*
X006163Y009725D01*
X006124Y009703D01*
X006084Y009685D01*
X006042Y009671D01*
X005999Y009660D01*
X005955Y009653D01*
X005911Y009650D01*
X005867Y009651D01*
X005823Y009656D01*
X005780Y009665D01*
X005737Y009677D01*
X005696Y009694D01*
X005656Y009713D01*
X005619Y009737D01*
X005583Y009763D01*
X005550Y009793D01*
X005520Y009825D01*
X005493Y009860D01*
X005469Y009897D01*
X005448Y009936D01*
X005431Y009977D01*
X005418Y010019D01*
X005408Y010062D01*
X005402Y010106D01*
X005400Y010150D01*
X003895Y007583D02*
X003752Y007537D01*
X003720Y007474D01*
X001913Y006887D01*
X001850Y006919D01*
X001707Y006873D01*
X001691Y006866D01*
X001676Y006857D01*
X001664Y006845D01*
X001653Y006831D01*
X001645Y006815D01*
X001640Y006799D01*
X001638Y006781D01*
X001639Y006764D01*
X001643Y006747D01*
X001859Y006081D02*
X001867Y006063D01*
X001878Y006047D01*
X001892Y006033D01*
X001909Y006023D01*
X001927Y006016D01*
X001946Y006012D01*
X001966Y006013D01*
X001985Y006017D01*
X002128Y006063D01*
X002160Y006126D01*
X003967Y006713D01*
X004030Y006681D01*
X004173Y006727D01*
X004189Y006734D01*
X004204Y006743D01*
X004216Y006755D01*
X004227Y006769D01*
X004235Y006785D01*
X004240Y006801D01*
X004242Y006819D01*
X004241Y006836D01*
X004237Y006853D01*
X004021Y007519D02*
X004014Y007535D01*
X004005Y007550D01*
X003993Y007562D01*
X003979Y007573D01*
X003963Y007581D01*
X003947Y007586D01*
X003929Y007588D01*
X003912Y007587D01*
X003895Y007583D01*
X002249Y004821D02*
X002249Y004180D01*
X002462Y004180D02*
X002035Y004180D01*
X002035Y004607D02*
X002249Y004821D01*
X008200Y003800D02*
X008200Y003650D01*
X008250Y003600D01*
X008250Y001700D01*
X008200Y001650D01*
X008200Y001500D01*
X008202Y001483D01*
X008206Y001466D01*
X008213Y001450D01*
X008223Y001436D01*
X008236Y001423D01*
X008250Y001413D01*
X008266Y001406D01*
X008283Y001402D01*
X008300Y001400D01*
X009000Y001400D02*
X009017Y001402D01*
X009034Y001406D01*
X009050Y001413D01*
X009064Y001423D01*
X009077Y001436D01*
X009087Y001450D01*
X009094Y001466D01*
X009098Y001483D01*
X009100Y001500D01*
X009100Y001650D01*
X009050Y001700D01*
X009050Y003600D01*
X009100Y003650D01*
X009100Y003800D01*
X009098Y003817D01*
X009094Y003834D01*
X009087Y003850D01*
X009077Y003864D01*
X009064Y003877D01*
X009050Y003887D01*
X009034Y003894D01*
X009017Y003898D01*
X009000Y003900D01*
X008300Y003900D02*
X008283Y003898D01*
X008266Y003894D01*
X008250Y003887D01*
X008236Y003877D01*
X008223Y003864D01*
X008213Y003850D01*
X008206Y003834D01*
X008202Y003817D01*
X008200Y003800D01*
X001462Y012680D02*
X001035Y012680D01*
X001462Y013107D01*
X001462Y013214D01*
X001356Y013321D01*
X001142Y013321D01*
X001035Y013214D01*
X006035Y016287D02*
X006142Y016180D01*
X006356Y016180D01*
X006462Y016287D01*
X006462Y016394D01*
X006356Y016500D01*
X006249Y016500D01*
X006356Y016500D02*
X006462Y016607D01*
X006462Y016714D01*
X006356Y016821D01*
X006142Y016821D01*
X006035Y016714D01*
D13*
X007548Y016278D02*
X009752Y016278D01*
X009762Y015436D02*
X009837Y015436D01*
X009912Y015361D01*
X009912Y015210D01*
X009837Y015135D01*
X009837Y014975D02*
X009537Y014975D01*
X009462Y014900D01*
X009462Y014675D01*
X009912Y014675D01*
X009912Y014900D01*
X009837Y014975D01*
X009537Y015135D02*
X009462Y015210D01*
X009462Y015361D01*
X009537Y015436D01*
X009612Y015436D01*
X009687Y015361D01*
X009762Y015436D01*
X009687Y015361D02*
X009687Y015286D01*
X009462Y014515D02*
X009462Y014215D01*
X009912Y014215D01*
X009912Y014515D01*
X009687Y014365D02*
X009687Y014215D01*
X009912Y014054D02*
X009912Y013754D01*
X009462Y013754D01*
X006524Y014650D02*
X006527Y014754D01*
X006534Y014858D01*
X006547Y014962D01*
X006565Y015065D01*
X006588Y015167D01*
X006616Y015267D01*
X006648Y015366D01*
X006686Y015464D01*
X006728Y015559D01*
X006775Y015652D01*
X006826Y015743D01*
X006882Y015831D01*
X006942Y015916D01*
X007007Y015999D01*
X007075Y016078D01*
X007147Y016153D01*
X007222Y016225D01*
X007301Y016293D01*
X007384Y016358D01*
X007469Y016418D01*
X007557Y016474D01*
X007648Y016525D01*
X007741Y016572D01*
X007836Y016614D01*
X007934Y016652D01*
X008033Y016684D01*
X008133Y016712D01*
X008235Y016735D01*
X008338Y016753D01*
X008442Y016766D01*
X008546Y016773D01*
X008650Y016776D01*
X008754Y016773D01*
X008858Y016766D01*
X008962Y016753D01*
X009065Y016735D01*
X009167Y016712D01*
X009267Y016684D01*
X009366Y016652D01*
X009464Y016614D01*
X009559Y016572D01*
X009652Y016525D01*
X009743Y016474D01*
X009831Y016418D01*
X009916Y016358D01*
X009999Y016293D01*
X010078Y016225D01*
X010153Y016153D01*
X010225Y016078D01*
X010293Y015999D01*
X010358Y015916D01*
X010418Y015831D01*
X010474Y015743D01*
X010525Y015652D01*
X010572Y015559D01*
X010614Y015464D01*
X010652Y015366D01*
X010684Y015267D01*
X010712Y015167D01*
X010735Y015065D01*
X010753Y014962D01*
X010766Y014858D01*
X010773Y014754D01*
X010776Y014650D01*
X010773Y014546D01*
X010766Y014442D01*
X010753Y014338D01*
X010735Y014235D01*
X010712Y014133D01*
X010684Y014033D01*
X010652Y013934D01*
X010614Y013836D01*
X010572Y013741D01*
X010525Y013648D01*
X010474Y013557D01*
X010418Y013469D01*
X010358Y013384D01*
X010293Y013301D01*
X010225Y013222D01*
X010153Y013147D01*
X010078Y013075D01*
X009999Y013007D01*
X009916Y012942D01*
X009831Y012882D01*
X009743Y012826D01*
X009652Y012775D01*
X009559Y012728D01*
X009464Y012686D01*
X009366Y012648D01*
X009267Y012616D01*
X009167Y012588D01*
X009065Y012565D01*
X008962Y012547D01*
X008858Y012534D01*
X008754Y012527D01*
X008650Y012524D01*
X008546Y012527D01*
X008442Y012534D01*
X008338Y012547D01*
X008235Y012565D01*
X008133Y012588D01*
X008033Y012616D01*
X007934Y012648D01*
X007836Y012686D01*
X007741Y012728D01*
X007648Y012775D01*
X007557Y012826D01*
X007469Y012882D01*
X007384Y012942D01*
X007301Y013007D01*
X007222Y013075D01*
X007147Y013147D01*
X007075Y013222D01*
X007007Y013301D01*
X006942Y013384D01*
X006882Y013469D01*
X006826Y013557D01*
X006775Y013648D01*
X006728Y013741D01*
X006686Y013836D01*
X006648Y013934D01*
X006616Y014033D01*
X006588Y014133D01*
X006565Y014235D01*
X006547Y014338D01*
X006534Y014442D01*
X006527Y014546D01*
X006524Y014650D01*
X005379Y013544D02*
X005467Y013423D01*
X005451Y013318D01*
X005390Y013274D01*
X005285Y013290D01*
X005268Y013186D01*
X005208Y013141D01*
X005103Y013158D01*
X005015Y013279D01*
X005031Y013384D01*
X004876Y013470D02*
X004910Y013679D01*
X004954Y013619D02*
X004821Y013801D01*
X004700Y013713D02*
X005064Y013977D01*
X005197Y013795D01*
X005180Y013690D01*
X005059Y013602D01*
X004954Y013619D01*
X005274Y013561D02*
X005379Y013544D01*
X005241Y013351D02*
X005285Y013290D01*
X004006Y011481D02*
X003863Y011528D01*
X003769Y011480D01*
X003616Y011529D02*
X003568Y011624D01*
X003354Y011693D01*
X003215Y011265D01*
X003429Y011195D01*
X003524Y011244D01*
X003616Y011529D01*
X003653Y011123D02*
X004031Y011315D01*
X004054Y011387D01*
X004006Y011481D01*
X003938Y011030D02*
X003653Y011123D01*
X003202Y011743D02*
X002916Y011836D01*
X002777Y011407D01*
X003063Y011314D01*
X002989Y011575D02*
X002847Y011621D01*
X002625Y011457D02*
X002339Y011549D01*
X002478Y011978D01*
X001732Y012051D02*
X001051Y009955D01*
X001972Y010069D02*
X002191Y010743D01*
X001972Y010069D02*
X002721Y009826D01*
X002940Y010500D01*
X000814Y010500D02*
X000817Y010604D01*
X000824Y010708D01*
X000837Y010812D01*
X000855Y010915D01*
X000878Y011017D01*
X000906Y011117D01*
X000938Y011216D01*
X000976Y011314D01*
X001018Y011409D01*
X001065Y011502D01*
X001116Y011593D01*
X001172Y011681D01*
X001232Y011766D01*
X001297Y011849D01*
X001365Y011928D01*
X001437Y012003D01*
X001512Y012075D01*
X001591Y012143D01*
X001674Y012208D01*
X001759Y012268D01*
X001847Y012324D01*
X001938Y012375D01*
X002031Y012422D01*
X002126Y012464D01*
X002224Y012502D01*
X002323Y012534D01*
X002423Y012562D01*
X002525Y012585D01*
X002628Y012603D01*
X002732Y012616D01*
X002836Y012623D01*
X002940Y012626D01*
X003044Y012623D01*
X003148Y012616D01*
X003252Y012603D01*
X003355Y012585D01*
X003457Y012562D01*
X003557Y012534D01*
X003656Y012502D01*
X003754Y012464D01*
X003849Y012422D01*
X003942Y012375D01*
X004033Y012324D01*
X004121Y012268D01*
X004206Y012208D01*
X004289Y012143D01*
X004368Y012075D01*
X004443Y012003D01*
X004515Y011928D01*
X004583Y011849D01*
X004648Y011766D01*
X004708Y011681D01*
X004764Y011593D01*
X004815Y011502D01*
X004862Y011409D01*
X004904Y011314D01*
X004942Y011216D01*
X004974Y011117D01*
X005002Y011017D01*
X005025Y010915D01*
X005043Y010812D01*
X005056Y010708D01*
X005063Y010604D01*
X005066Y010500D01*
X005063Y010396D01*
X005056Y010292D01*
X005043Y010188D01*
X005025Y010085D01*
X005002Y009983D01*
X004974Y009883D01*
X004942Y009784D01*
X004904Y009686D01*
X004862Y009591D01*
X004815Y009498D01*
X004764Y009407D01*
X004708Y009319D01*
X004648Y009234D01*
X004583Y009151D01*
X004515Y009072D01*
X004443Y008997D01*
X004368Y008925D01*
X004289Y008857D01*
X004206Y008792D01*
X004121Y008732D01*
X004033Y008676D01*
X003942Y008625D01*
X003849Y008578D01*
X003754Y008536D01*
X003656Y008498D01*
X003557Y008466D01*
X003457Y008438D01*
X003355Y008415D01*
X003252Y008397D01*
X003148Y008384D01*
X003044Y008377D01*
X002940Y008374D01*
X002836Y008377D01*
X002732Y008384D01*
X002628Y008397D01*
X002525Y008415D01*
X002423Y008438D01*
X002323Y008466D01*
X002224Y008498D01*
X002126Y008536D01*
X002031Y008578D01*
X001938Y008625D01*
X001847Y008676D01*
X001759Y008732D01*
X001674Y008792D01*
X001591Y008857D01*
X001512Y008925D01*
X001437Y008997D01*
X001365Y009072D01*
X001297Y009151D01*
X001232Y009234D01*
X001172Y009319D01*
X001116Y009407D01*
X001065Y009498D01*
X001018Y009591D01*
X000976Y009686D01*
X000938Y009784D01*
X000906Y009883D01*
X000878Y009983D01*
X000855Y010085D01*
X000837Y010188D01*
X000824Y010292D01*
X000817Y010396D01*
X000814Y010500D01*
X000971Y010500D02*
X000973Y010597D01*
X000980Y010693D01*
X000992Y010789D01*
X001009Y010884D01*
X001030Y010978D01*
X001056Y011072D01*
X001086Y011163D01*
X001121Y011254D01*
X001160Y011342D01*
X001203Y011428D01*
X001251Y011512D01*
X001303Y011594D01*
X001358Y011673D01*
X001418Y011749D01*
X001481Y011822D01*
X001548Y011892D01*
X001618Y011959D01*
X001691Y012022D01*
X001767Y012082D01*
X001846Y012137D01*
X001928Y012189D01*
X002012Y012237D01*
X002098Y012280D01*
X002186Y012319D01*
X002277Y012354D01*
X002368Y012384D01*
X002462Y012410D01*
X002556Y012431D01*
X002651Y012448D01*
X002747Y012460D01*
X002843Y012467D01*
X002940Y012469D01*
X003037Y012467D01*
X003133Y012460D01*
X003229Y012448D01*
X003324Y012431D01*
X003418Y012410D01*
X003512Y012384D01*
X003603Y012354D01*
X003694Y012319D01*
X003782Y012280D01*
X003868Y012237D01*
X003952Y012189D01*
X004034Y012137D01*
X004113Y012082D01*
X004189Y012022D01*
X004262Y011959D01*
X004332Y011892D01*
X004399Y011822D01*
X004462Y011749D01*
X004522Y011673D01*
X004577Y011594D01*
X004629Y011512D01*
X004677Y011428D01*
X004720Y011342D01*
X004759Y011254D01*
X004794Y011163D01*
X004824Y011072D01*
X004850Y010978D01*
X004871Y010884D01*
X004888Y010789D01*
X004900Y010693D01*
X004907Y010597D01*
X004909Y010500D01*
X004907Y010403D01*
X004900Y010307D01*
X004888Y010211D01*
X004871Y010116D01*
X004850Y010022D01*
X004824Y009928D01*
X004794Y009837D01*
X004759Y009746D01*
X004720Y009658D01*
X004677Y009572D01*
X004629Y009488D01*
X004577Y009406D01*
X004522Y009327D01*
X004462Y009251D01*
X004399Y009178D01*
X004332Y009108D01*
X004262Y009041D01*
X004189Y008978D01*
X004113Y008918D01*
X004034Y008863D01*
X003952Y008811D01*
X003868Y008763D01*
X003782Y008720D01*
X003694Y008681D01*
X003603Y008646D01*
X003512Y008616D01*
X003418Y008590D01*
X003324Y008569D01*
X003229Y008552D01*
X003133Y008540D01*
X003037Y008533D01*
X002940Y008531D01*
X002843Y008533D01*
X002747Y008540D01*
X002651Y008552D01*
X002556Y008569D01*
X002462Y008590D01*
X002368Y008616D01*
X002277Y008646D01*
X002186Y008681D01*
X002098Y008720D01*
X002012Y008763D01*
X001928Y008811D01*
X001846Y008863D01*
X001767Y008918D01*
X001691Y008978D01*
X001618Y009041D01*
X001548Y009108D01*
X001481Y009178D01*
X001418Y009251D01*
X001358Y009327D01*
X001303Y009406D01*
X001251Y009488D01*
X001203Y009572D01*
X001160Y009658D01*
X001121Y009746D01*
X001086Y009837D01*
X001056Y009928D01*
X001030Y010022D01*
X001009Y010116D01*
X000992Y010211D01*
X000980Y010307D01*
X000973Y010403D01*
X000971Y010500D01*
X002452Y006853D02*
X002666Y006923D01*
X002761Y006875D01*
X002807Y006732D01*
X002759Y006637D01*
X002545Y006568D01*
X002688Y006614D02*
X002877Y006518D01*
X003029Y006567D02*
X003222Y006946D01*
X003199Y007017D01*
X003104Y007065D01*
X002962Y007019D01*
X002913Y006924D01*
X002452Y006853D02*
X002591Y006425D01*
X003029Y006567D02*
X003315Y006660D01*
X004472Y005056D02*
X004836Y004792D01*
X004748Y004670D02*
X004925Y004913D01*
X004505Y004847D02*
X004472Y005056D01*
X004350Y004761D02*
X004245Y004745D01*
X004113Y004562D01*
X004477Y004298D01*
X004610Y004480D01*
X004593Y004585D01*
X004350Y004761D01*
X004019Y004433D02*
X003842Y004190D01*
X004207Y003925D01*
X004383Y004168D01*
X004113Y004179D02*
X004025Y004058D01*
X004113Y003796D02*
X003936Y003553D01*
X003572Y003818D01*
X003271Y003131D02*
X005055Y001835D01*
X005230Y002746D02*
X004657Y003163D01*
X002994Y003800D02*
X002997Y003904D01*
X003004Y004008D01*
X003017Y004112D01*
X003035Y004215D01*
X003058Y004317D01*
X003086Y004417D01*
X003118Y004516D01*
X003156Y004614D01*
X003198Y004709D01*
X003245Y004802D01*
X003296Y004893D01*
X003352Y004981D01*
X003412Y005066D01*
X003477Y005149D01*
X003545Y005228D01*
X003617Y005303D01*
X003692Y005375D01*
X003771Y005443D01*
X003854Y005508D01*
X003939Y005568D01*
X004027Y005624D01*
X004118Y005675D01*
X004211Y005722D01*
X004306Y005764D01*
X004404Y005802D01*
X004503Y005834D01*
X004603Y005862D01*
X004705Y005885D01*
X004808Y005903D01*
X004912Y005916D01*
X005016Y005923D01*
X005120Y005926D01*
X005224Y005923D01*
X005328Y005916D01*
X005432Y005903D01*
X005535Y005885D01*
X005637Y005862D01*
X005737Y005834D01*
X005836Y005802D01*
X005934Y005764D01*
X006029Y005722D01*
X006122Y005675D01*
X006213Y005624D01*
X006301Y005568D01*
X006386Y005508D01*
X006469Y005443D01*
X006548Y005375D01*
X006623Y005303D01*
X006695Y005228D01*
X006763Y005149D01*
X006828Y005066D01*
X006888Y004981D01*
X006944Y004893D01*
X006995Y004802D01*
X007042Y004709D01*
X007084Y004614D01*
X007122Y004516D01*
X007154Y004417D01*
X007182Y004317D01*
X007205Y004215D01*
X007223Y004112D01*
X007236Y004008D01*
X007243Y003904D01*
X007246Y003800D01*
X007243Y003696D01*
X007236Y003592D01*
X007223Y003488D01*
X007205Y003385D01*
X007182Y003283D01*
X007154Y003183D01*
X007122Y003084D01*
X007084Y002986D01*
X007042Y002891D01*
X006995Y002798D01*
X006944Y002707D01*
X006888Y002619D01*
X006828Y002534D01*
X006763Y002451D01*
X006695Y002372D01*
X006623Y002297D01*
X006548Y002225D01*
X006469Y002157D01*
X006386Y002092D01*
X006301Y002032D01*
X006213Y001976D01*
X006122Y001925D01*
X006029Y001878D01*
X005934Y001836D01*
X005836Y001798D01*
X005737Y001766D01*
X005637Y001738D01*
X005535Y001715D01*
X005432Y001697D01*
X005328Y001684D01*
X005224Y001677D01*
X005120Y001674D01*
X005016Y001677D01*
X004912Y001684D01*
X004808Y001697D01*
X004705Y001715D01*
X004603Y001738D01*
X004503Y001766D01*
X004404Y001798D01*
X004306Y001836D01*
X004211Y001878D01*
X004118Y001925D01*
X004027Y001976D01*
X003939Y002032D01*
X003854Y002092D01*
X003771Y002157D01*
X003692Y002225D01*
X003617Y002297D01*
X003545Y002372D01*
X003477Y002451D01*
X003412Y002534D01*
X003352Y002619D01*
X003296Y002707D01*
X003245Y002798D01*
X003198Y002891D01*
X003156Y002986D01*
X003118Y003084D01*
X003086Y003183D01*
X003058Y003283D01*
X003035Y003385D01*
X003017Y003488D01*
X003004Y003592D01*
X002997Y003696D01*
X002994Y003800D01*
X003151Y003800D02*
X003153Y003897D01*
X003160Y003993D01*
X003172Y004089D01*
X003189Y004184D01*
X003210Y004278D01*
X003236Y004372D01*
X003266Y004463D01*
X003301Y004554D01*
X003340Y004642D01*
X003383Y004728D01*
X003431Y004812D01*
X003483Y004894D01*
X003538Y004973D01*
X003598Y005049D01*
X003661Y005122D01*
X003728Y005192D01*
X003798Y005259D01*
X003871Y005322D01*
X003947Y005382D01*
X004026Y005437D01*
X004108Y005489D01*
X004192Y005537D01*
X004278Y005580D01*
X004366Y005619D01*
X004457Y005654D01*
X004548Y005684D01*
X004642Y005710D01*
X004736Y005731D01*
X004831Y005748D01*
X004927Y005760D01*
X005023Y005767D01*
X005120Y005769D01*
X005217Y005767D01*
X005313Y005760D01*
X005409Y005748D01*
X005504Y005731D01*
X005598Y005710D01*
X005692Y005684D01*
X005783Y005654D01*
X005874Y005619D01*
X005962Y005580D01*
X006048Y005537D01*
X006132Y005489D01*
X006214Y005437D01*
X006293Y005382D01*
X006369Y005322D01*
X006442Y005259D01*
X006512Y005192D01*
X006579Y005122D01*
X006642Y005049D01*
X006702Y004973D01*
X006757Y004894D01*
X006809Y004812D01*
X006857Y004728D01*
X006900Y004642D01*
X006939Y004554D01*
X006974Y004463D01*
X007004Y004372D01*
X007030Y004278D01*
X007051Y004184D01*
X007068Y004089D01*
X007080Y003993D01*
X007087Y003897D01*
X007089Y003800D01*
X007087Y003703D01*
X007080Y003607D01*
X007068Y003511D01*
X007051Y003416D01*
X007030Y003322D01*
X007004Y003228D01*
X006974Y003137D01*
X006939Y003046D01*
X006900Y002958D01*
X006857Y002872D01*
X006809Y002788D01*
X006757Y002706D01*
X006702Y002627D01*
X006642Y002551D01*
X006579Y002478D01*
X006512Y002408D01*
X006442Y002341D01*
X006369Y002278D01*
X006293Y002218D01*
X006214Y002163D01*
X006132Y002111D01*
X006048Y002063D01*
X005962Y002020D01*
X005874Y001981D01*
X005783Y001946D01*
X005692Y001916D01*
X005598Y001890D01*
X005504Y001869D01*
X005409Y001852D01*
X005313Y001840D01*
X005217Y001833D01*
X005120Y001831D01*
X005023Y001833D01*
X004927Y001840D01*
X004831Y001852D01*
X004736Y001869D01*
X004642Y001890D01*
X004548Y001916D01*
X004457Y001946D01*
X004366Y001981D01*
X004278Y002020D01*
X004192Y002063D01*
X004108Y002111D01*
X004026Y002163D01*
X003947Y002218D01*
X003871Y002278D01*
X003798Y002341D01*
X003728Y002408D01*
X003661Y002478D01*
X003598Y002551D01*
X003538Y002627D01*
X003483Y002706D01*
X003431Y002788D01*
X003383Y002872D01*
X003340Y002958D01*
X003301Y003046D01*
X003266Y003137D01*
X003236Y003228D01*
X003210Y003322D01*
X003189Y003416D01*
X003172Y003511D01*
X003160Y003607D01*
X003153Y003703D01*
X003151Y003800D01*
X005120Y003800D02*
X005693Y003383D01*
X005230Y002746D01*
X007742Y004938D02*
X007742Y005388D01*
X007892Y005238D01*
X008042Y005388D01*
X008042Y004938D01*
X008202Y005013D02*
X008277Y004938D01*
X008427Y004938D01*
X008502Y005013D01*
X008502Y005313D01*
X008427Y005388D01*
X008277Y005388D01*
X008202Y005313D01*
X008202Y005013D01*
X008662Y004938D02*
X008662Y005388D01*
X008888Y005388D01*
X008963Y005313D01*
X008963Y005013D01*
X008888Y004938D01*
X008662Y004938D01*
X009123Y004938D02*
X009423Y004938D01*
X009273Y005163D02*
X009123Y005163D01*
X009123Y005388D02*
X009123Y004938D01*
X009123Y005388D02*
X009423Y005388D01*
X010632Y003783D02*
X010997Y004047D01*
X010632Y003783D02*
X010809Y003540D01*
X010903Y003410D02*
X011079Y003167D01*
X011173Y003038D02*
X011306Y002856D01*
X011411Y002839D01*
X011654Y003015D01*
X011670Y003120D01*
X011538Y003302D01*
X011173Y003038D01*
X011173Y003421D02*
X011085Y003543D01*
X011267Y003675D02*
X010903Y003410D01*
X011267Y003675D02*
X011444Y003432D01*
X011808Y002930D02*
X011626Y002798D01*
X011775Y002720D01*
X011819Y002660D01*
X011803Y002555D01*
X011681Y002466D01*
X011576Y002483D01*
X011488Y002605D01*
X011505Y002709D01*
X011808Y002930D02*
X011985Y002687D01*
X012643Y003163D02*
X013216Y003580D01*
X012753Y004217D01*
X012180Y003800D01*
X010054Y003800D02*
X010057Y003904D01*
X010064Y004008D01*
X010077Y004112D01*
X010095Y004215D01*
X010118Y004317D01*
X010146Y004417D01*
X010178Y004516D01*
X010216Y004614D01*
X010258Y004709D01*
X010305Y004802D01*
X010356Y004893D01*
X010412Y004981D01*
X010472Y005066D01*
X010537Y005149D01*
X010605Y005228D01*
X010677Y005303D01*
X010752Y005375D01*
X010831Y005443D01*
X010914Y005508D01*
X010999Y005568D01*
X011087Y005624D01*
X011178Y005675D01*
X011271Y005722D01*
X011366Y005764D01*
X011464Y005802D01*
X011563Y005834D01*
X011663Y005862D01*
X011765Y005885D01*
X011868Y005903D01*
X011972Y005916D01*
X012076Y005923D01*
X012180Y005926D01*
X012284Y005923D01*
X012388Y005916D01*
X012492Y005903D01*
X012595Y005885D01*
X012697Y005862D01*
X012797Y005834D01*
X012896Y005802D01*
X012994Y005764D01*
X013089Y005722D01*
X013182Y005675D01*
X013273Y005624D01*
X013361Y005568D01*
X013446Y005508D01*
X013529Y005443D01*
X013608Y005375D01*
X013683Y005303D01*
X013755Y005228D01*
X013823Y005149D01*
X013888Y005066D01*
X013948Y004981D01*
X014004Y004893D01*
X014055Y004802D01*
X014102Y004709D01*
X014144Y004614D01*
X014182Y004516D01*
X014214Y004417D01*
X014242Y004317D01*
X014265Y004215D01*
X014283Y004112D01*
X014296Y004008D01*
X014303Y003904D01*
X014306Y003800D01*
X014303Y003696D01*
X014296Y003592D01*
X014283Y003488D01*
X014265Y003385D01*
X014242Y003283D01*
X014214Y003183D01*
X014182Y003084D01*
X014144Y002986D01*
X014102Y002891D01*
X014055Y002798D01*
X014004Y002707D01*
X013948Y002619D01*
X013888Y002534D01*
X013823Y002451D01*
X013755Y002372D01*
X013683Y002297D01*
X013608Y002225D01*
X013529Y002157D01*
X013446Y002092D01*
X013361Y002032D01*
X013273Y001976D01*
X013182Y001925D01*
X013089Y001878D01*
X012994Y001836D01*
X012896Y001798D01*
X012797Y001766D01*
X012697Y001738D01*
X012595Y001715D01*
X012492Y001697D01*
X012388Y001684D01*
X012284Y001677D01*
X012180Y001674D01*
X012076Y001677D01*
X011972Y001684D01*
X011868Y001697D01*
X011765Y001715D01*
X011663Y001738D01*
X011563Y001766D01*
X011464Y001798D01*
X011366Y001836D01*
X011271Y001878D01*
X011178Y001925D01*
X011087Y001976D01*
X010999Y002032D01*
X010914Y002092D01*
X010831Y002157D01*
X010752Y002225D01*
X010677Y002297D01*
X010605Y002372D01*
X010537Y002451D01*
X010472Y002534D01*
X010412Y002619D01*
X010356Y002707D01*
X010305Y002798D01*
X010258Y002891D01*
X010216Y002986D01*
X010178Y003084D01*
X010146Y003183D01*
X010118Y003283D01*
X010095Y003385D01*
X010077Y003488D01*
X010064Y003592D01*
X010057Y003696D01*
X010054Y003800D01*
X008888Y002975D02*
X008888Y002675D01*
X008888Y002825D02*
X008437Y002825D01*
X008587Y002675D01*
X008512Y002515D02*
X008437Y002440D01*
X008437Y002215D01*
X008888Y002215D01*
X008737Y002215D02*
X008737Y002440D01*
X008662Y002515D01*
X008512Y002515D01*
X008737Y002365D02*
X008888Y002515D01*
X012245Y001835D02*
X014029Y003131D01*
X010211Y003800D02*
X010213Y003897D01*
X010220Y003993D01*
X010232Y004089D01*
X010249Y004184D01*
X010270Y004278D01*
X010296Y004372D01*
X010326Y004463D01*
X010361Y004554D01*
X010400Y004642D01*
X010443Y004728D01*
X010491Y004812D01*
X010543Y004894D01*
X010598Y004973D01*
X010658Y005049D01*
X010721Y005122D01*
X010788Y005192D01*
X010858Y005259D01*
X010931Y005322D01*
X011007Y005382D01*
X011086Y005437D01*
X011168Y005489D01*
X011252Y005537D01*
X011338Y005580D01*
X011426Y005619D01*
X011517Y005654D01*
X011608Y005684D01*
X011702Y005710D01*
X011796Y005731D01*
X011891Y005748D01*
X011987Y005760D01*
X012083Y005767D01*
X012180Y005769D01*
X012277Y005767D01*
X012373Y005760D01*
X012469Y005748D01*
X012564Y005731D01*
X012658Y005710D01*
X012752Y005684D01*
X012843Y005654D01*
X012934Y005619D01*
X013022Y005580D01*
X013108Y005537D01*
X013192Y005489D01*
X013274Y005437D01*
X013353Y005382D01*
X013429Y005322D01*
X013502Y005259D01*
X013572Y005192D01*
X013639Y005122D01*
X013702Y005049D01*
X013762Y004973D01*
X013817Y004894D01*
X013869Y004812D01*
X013917Y004728D01*
X013960Y004642D01*
X013999Y004554D01*
X014034Y004463D01*
X014064Y004372D01*
X014090Y004278D01*
X014111Y004184D01*
X014128Y004089D01*
X014140Y003993D01*
X014147Y003897D01*
X014149Y003800D01*
X014147Y003703D01*
X014140Y003607D01*
X014128Y003511D01*
X014111Y003416D01*
X014090Y003322D01*
X014064Y003228D01*
X014034Y003137D01*
X013999Y003046D01*
X013960Y002958D01*
X013917Y002872D01*
X013869Y002788D01*
X013817Y002706D01*
X013762Y002627D01*
X013702Y002551D01*
X013639Y002478D01*
X013572Y002408D01*
X013502Y002341D01*
X013429Y002278D01*
X013353Y002218D01*
X013274Y002163D01*
X013192Y002111D01*
X013108Y002063D01*
X013022Y002020D01*
X012934Y001981D01*
X012843Y001946D01*
X012752Y001916D01*
X012658Y001890D01*
X012564Y001869D01*
X012469Y001852D01*
X012373Y001840D01*
X012277Y001833D01*
X012180Y001831D01*
X012083Y001833D01*
X011987Y001840D01*
X011891Y001852D01*
X011796Y001869D01*
X011702Y001890D01*
X011608Y001916D01*
X011517Y001946D01*
X011426Y001981D01*
X011338Y002020D01*
X011252Y002063D01*
X011168Y002111D01*
X011086Y002163D01*
X011007Y002218D01*
X010931Y002278D01*
X010858Y002341D01*
X010788Y002408D01*
X010721Y002478D01*
X010658Y002551D01*
X010598Y002627D01*
X010543Y002706D01*
X010491Y002788D01*
X010443Y002872D01*
X010400Y002958D01*
X010361Y003046D01*
X010326Y003137D01*
X010296Y003228D01*
X010270Y003322D01*
X010249Y003416D01*
X010232Y003511D01*
X010220Y003607D01*
X010213Y003703D01*
X010211Y003800D01*
X013845Y006701D02*
X013984Y007129D01*
X014198Y007060D01*
X014247Y006965D01*
X014200Y006822D01*
X014106Y006774D01*
X013891Y006844D01*
X014034Y006797D02*
X014131Y006608D01*
X014306Y006630D02*
X014354Y006535D01*
X014497Y006489D01*
X014592Y006537D01*
X014638Y006680D01*
X014590Y006775D01*
X014518Y006798D01*
X014352Y006773D01*
X014422Y006987D01*
X014708Y006894D01*
X013898Y009023D02*
X014184Y009115D01*
X014336Y009165D02*
X014622Y009258D01*
X014774Y009307D02*
X014988Y009377D01*
X015036Y009471D01*
X014943Y009757D01*
X014849Y009805D01*
X014635Y009735D01*
X014774Y009307D01*
X014409Y009425D02*
X014266Y009379D01*
X014197Y009593D02*
X014336Y009165D01*
X013898Y009023D02*
X013759Y009451D01*
X014197Y009593D02*
X014482Y009686D01*
X015142Y009664D02*
X015428Y009756D01*
X015426Y009519D02*
X015287Y009947D01*
X015142Y009664D01*
X012234Y010500D02*
X012237Y010604D01*
X012244Y010708D01*
X012257Y010812D01*
X012275Y010915D01*
X012298Y011017D01*
X012326Y011117D01*
X012358Y011216D01*
X012396Y011314D01*
X012438Y011409D01*
X012485Y011502D01*
X012536Y011593D01*
X012592Y011681D01*
X012652Y011766D01*
X012717Y011849D01*
X012785Y011928D01*
X012857Y012003D01*
X012932Y012075D01*
X013011Y012143D01*
X013094Y012208D01*
X013179Y012268D01*
X013267Y012324D01*
X013358Y012375D01*
X013451Y012422D01*
X013546Y012464D01*
X013644Y012502D01*
X013743Y012534D01*
X013843Y012562D01*
X013945Y012585D01*
X014048Y012603D01*
X014152Y012616D01*
X014256Y012623D01*
X014360Y012626D01*
X014464Y012623D01*
X014568Y012616D01*
X014672Y012603D01*
X014775Y012585D01*
X014877Y012562D01*
X014977Y012534D01*
X015076Y012502D01*
X015174Y012464D01*
X015269Y012422D01*
X015362Y012375D01*
X015453Y012324D01*
X015541Y012268D01*
X015626Y012208D01*
X015709Y012143D01*
X015788Y012075D01*
X015863Y012003D01*
X015935Y011928D01*
X016003Y011849D01*
X016068Y011766D01*
X016128Y011681D01*
X016184Y011593D01*
X016235Y011502D01*
X016282Y011409D01*
X016324Y011314D01*
X016362Y011216D01*
X016394Y011117D01*
X016422Y011017D01*
X016445Y010915D01*
X016463Y010812D01*
X016476Y010708D01*
X016483Y010604D01*
X016486Y010500D01*
X016483Y010396D01*
X016476Y010292D01*
X016463Y010188D01*
X016445Y010085D01*
X016422Y009983D01*
X016394Y009883D01*
X016362Y009784D01*
X016324Y009686D01*
X016282Y009591D01*
X016235Y009498D01*
X016184Y009407D01*
X016128Y009319D01*
X016068Y009234D01*
X016003Y009151D01*
X015935Y009072D01*
X015863Y008997D01*
X015788Y008925D01*
X015709Y008857D01*
X015626Y008792D01*
X015541Y008732D01*
X015453Y008676D01*
X015362Y008625D01*
X015269Y008578D01*
X015174Y008536D01*
X015076Y008498D01*
X014977Y008466D01*
X014877Y008438D01*
X014775Y008415D01*
X014672Y008397D01*
X014568Y008384D01*
X014464Y008377D01*
X014360Y008374D01*
X014256Y008377D01*
X014152Y008384D01*
X014048Y008397D01*
X013945Y008415D01*
X013843Y008438D01*
X013743Y008466D01*
X013644Y008498D01*
X013546Y008536D01*
X013451Y008578D01*
X013358Y008625D01*
X013267Y008676D01*
X013179Y008732D01*
X013094Y008792D01*
X013011Y008857D01*
X012932Y008925D01*
X012857Y008997D01*
X012785Y009072D01*
X012717Y009151D01*
X012652Y009234D01*
X012592Y009319D01*
X012536Y009407D01*
X012485Y009498D01*
X012438Y009591D01*
X012396Y009686D01*
X012358Y009784D01*
X012326Y009883D01*
X012298Y009983D01*
X012275Y010085D01*
X012257Y010188D01*
X012244Y010292D01*
X012237Y010396D01*
X012234Y010500D01*
X014141Y011174D02*
X014890Y011417D01*
X015109Y010743D01*
X012391Y010500D02*
X012393Y010597D01*
X012400Y010693D01*
X012412Y010789D01*
X012429Y010884D01*
X012450Y010978D01*
X012476Y011072D01*
X012506Y011163D01*
X012541Y011254D01*
X012580Y011342D01*
X012623Y011428D01*
X012671Y011512D01*
X012723Y011594D01*
X012778Y011673D01*
X012838Y011749D01*
X012901Y011822D01*
X012968Y011892D01*
X013038Y011959D01*
X013111Y012022D01*
X013187Y012082D01*
X013266Y012137D01*
X013348Y012189D01*
X013432Y012237D01*
X013518Y012280D01*
X013606Y012319D01*
X013697Y012354D01*
X013788Y012384D01*
X013882Y012410D01*
X013976Y012431D01*
X014071Y012448D01*
X014167Y012460D01*
X014263Y012467D01*
X014360Y012469D01*
X014457Y012467D01*
X014553Y012460D01*
X014649Y012448D01*
X014744Y012431D01*
X014838Y012410D01*
X014932Y012384D01*
X015023Y012354D01*
X015114Y012319D01*
X015202Y012280D01*
X015288Y012237D01*
X015372Y012189D01*
X015454Y012137D01*
X015533Y012082D01*
X015609Y012022D01*
X015682Y011959D01*
X015752Y011892D01*
X015819Y011822D01*
X015882Y011749D01*
X015942Y011673D01*
X015997Y011594D01*
X016049Y011512D01*
X016097Y011428D01*
X016140Y011342D01*
X016179Y011254D01*
X016214Y011163D01*
X016244Y011072D01*
X016270Y010978D01*
X016291Y010884D01*
X016308Y010789D01*
X016320Y010693D01*
X016327Y010597D01*
X016329Y010500D01*
X016327Y010403D01*
X016320Y010307D01*
X016308Y010211D01*
X016291Y010116D01*
X016270Y010022D01*
X016244Y009928D01*
X016214Y009837D01*
X016179Y009746D01*
X016140Y009658D01*
X016097Y009572D01*
X016049Y009488D01*
X015997Y009406D01*
X015942Y009327D01*
X015882Y009251D01*
X015819Y009178D01*
X015752Y009108D01*
X015682Y009041D01*
X015609Y008978D01*
X015533Y008918D01*
X015454Y008863D01*
X015372Y008811D01*
X015288Y008763D01*
X015202Y008720D01*
X015114Y008681D01*
X015023Y008646D01*
X014932Y008616D01*
X014838Y008590D01*
X014744Y008569D01*
X014649Y008552D01*
X014553Y008540D01*
X014457Y008533D01*
X014360Y008531D01*
X014263Y008533D01*
X014167Y008540D01*
X014071Y008552D01*
X013976Y008569D01*
X013882Y008590D01*
X013788Y008616D01*
X013697Y008646D01*
X013606Y008681D01*
X013518Y008720D01*
X013432Y008763D01*
X013348Y008811D01*
X013266Y008863D01*
X013187Y008918D01*
X013111Y008978D01*
X013038Y009041D01*
X012968Y009108D01*
X012901Y009178D01*
X012838Y009251D01*
X012778Y009327D01*
X012723Y009406D01*
X012671Y009488D01*
X012623Y009572D01*
X012580Y009658D01*
X012541Y009746D01*
X012506Y009837D01*
X012476Y009928D01*
X012450Y010022D01*
X012429Y010116D01*
X012412Y010211D01*
X012400Y010307D01*
X012393Y010403D01*
X012391Y010500D01*
X014141Y011174D02*
X014360Y010500D01*
X015568Y012051D02*
X016249Y009955D01*
X012539Y013584D02*
X012174Y013849D01*
X012224Y013535D01*
X012401Y013778D01*
X012130Y013405D02*
X012009Y013493D01*
X011904Y013477D01*
X011771Y013295D01*
X012136Y013030D01*
X012014Y013118D02*
X012147Y013300D01*
X012130Y013405D01*
X012103Y013239D02*
X012312Y013273D01*
X006681Y014650D02*
X006683Y014747D01*
X006690Y014843D01*
X006702Y014939D01*
X006719Y015034D01*
X006740Y015128D01*
X006766Y015222D01*
X006796Y015313D01*
X006831Y015404D01*
X006870Y015492D01*
X006913Y015578D01*
X006961Y015662D01*
X007013Y015744D01*
X007068Y015823D01*
X007128Y015899D01*
X007191Y015972D01*
X007258Y016042D01*
X007328Y016109D01*
X007401Y016172D01*
X007477Y016232D01*
X007556Y016287D01*
X007638Y016339D01*
X007722Y016387D01*
X007808Y016430D01*
X007896Y016469D01*
X007987Y016504D01*
X008078Y016534D01*
X008172Y016560D01*
X008266Y016581D01*
X008361Y016598D01*
X008457Y016610D01*
X008553Y016617D01*
X008650Y016619D01*
X008747Y016617D01*
X008843Y016610D01*
X008939Y016598D01*
X009034Y016581D01*
X009128Y016560D01*
X009222Y016534D01*
X009313Y016504D01*
X009404Y016469D01*
X009492Y016430D01*
X009578Y016387D01*
X009662Y016339D01*
X009744Y016287D01*
X009823Y016232D01*
X009899Y016172D01*
X009972Y016109D01*
X010042Y016042D01*
X010109Y015972D01*
X010172Y015899D01*
X010232Y015823D01*
X010287Y015744D01*
X010339Y015662D01*
X010387Y015578D01*
X010430Y015492D01*
X010469Y015404D01*
X010504Y015313D01*
X010534Y015222D01*
X010560Y015128D01*
X010581Y015034D01*
X010598Y014939D01*
X010610Y014843D01*
X010617Y014747D01*
X010619Y014650D01*
X010617Y014553D01*
X010610Y014457D01*
X010598Y014361D01*
X010581Y014266D01*
X010560Y014172D01*
X010534Y014078D01*
X010504Y013987D01*
X010469Y013896D01*
X010430Y013808D01*
X010387Y013722D01*
X010339Y013638D01*
X010287Y013556D01*
X010232Y013477D01*
X010172Y013401D01*
X010109Y013328D01*
X010042Y013258D01*
X009972Y013191D01*
X009899Y013128D01*
X009823Y013068D01*
X009744Y013013D01*
X009662Y012961D01*
X009578Y012913D01*
X009492Y012870D01*
X009404Y012831D01*
X009313Y012796D01*
X009222Y012766D01*
X009128Y012740D01*
X009034Y012719D01*
X008939Y012702D01*
X008843Y012690D01*
X008747Y012683D01*
X008650Y012681D01*
X008553Y012683D01*
X008457Y012690D01*
X008361Y012702D01*
X008266Y012719D01*
X008172Y012740D01*
X008078Y012766D01*
X007987Y012796D01*
X007896Y012831D01*
X007808Y012870D01*
X007722Y012913D01*
X007638Y012961D01*
X007556Y013013D01*
X007477Y013068D01*
X007401Y013128D01*
X007328Y013191D01*
X007258Y013258D01*
X007191Y013328D01*
X007128Y013401D01*
X007068Y013477D01*
X007013Y013556D01*
X006961Y013638D01*
X006913Y013722D01*
X006870Y013808D01*
X006831Y013896D01*
X006796Y013987D01*
X006766Y014078D01*
X006740Y014172D01*
X006719Y014266D01*
X006702Y014361D01*
X006690Y014457D01*
X006683Y014553D01*
X006681Y014650D01*
X007941Y014650D02*
X007941Y015437D01*
X008650Y015437D01*
X008650Y014650D02*
X007941Y014650D01*
X008200Y011307D02*
X008275Y011307D01*
X008425Y011157D01*
X008650Y011157D01*
X008425Y011157D02*
X008275Y011007D01*
X008200Y011007D01*
X008200Y010846D02*
X008650Y010846D01*
X008200Y010546D01*
X008650Y010546D01*
X008650Y010389D02*
X008650Y010239D01*
X008650Y010314D02*
X008200Y010314D01*
X008200Y010239D02*
X008200Y010389D01*
X008200Y010079D02*
X008200Y009779D01*
X008200Y009929D02*
X008650Y009929D01*
X008650Y009469D02*
X008200Y009469D01*
X008200Y009619D02*
X008200Y009318D01*
X008350Y009158D02*
X008200Y009008D01*
X008350Y008858D01*
X008650Y008858D01*
X008650Y009158D02*
X008350Y009158D01*
X008425Y009158D02*
X008425Y008858D01*
D14*
X012113Y005391D02*
X012284Y005156D01*
X012401Y005241D01*
X012412Y005309D01*
X012355Y005387D01*
X012288Y005398D01*
X012170Y005313D01*
X012672Y004704D02*
X012661Y004637D01*
X012718Y004558D01*
X012786Y004548D01*
X012903Y004633D01*
X012932Y004594D02*
X012789Y004789D01*
X012672Y004704D01*
X012932Y004594D02*
X012921Y004526D01*
X012882Y004498D01*
X013135Y004067D02*
X013252Y004152D01*
X013363Y004173D02*
X013419Y004094D01*
X013487Y004084D01*
X013565Y004141D01*
X013576Y004208D01*
X013519Y004286D01*
X013452Y004297D01*
X013373Y004240D01*
X013363Y004173D01*
X013366Y003996D02*
X013249Y003911D01*
X013181Y003921D01*
X013124Y004000D01*
X013135Y004067D01*
X013573Y004385D02*
X013612Y004413D01*
X013679Y004403D01*
X013690Y004470D01*
X013757Y004460D01*
X013843Y004342D01*
X013765Y004285D02*
X013679Y004403D01*
X013573Y004385D02*
X013686Y004228D01*
X013676Y003487D02*
X013637Y003458D01*
X013615Y003323D01*
X013672Y003245D02*
X013559Y003402D01*
X006684Y004124D02*
X006673Y004192D01*
X006556Y004277D01*
X006612Y004355D02*
X006442Y004120D01*
X006559Y004035D01*
X006627Y004046D01*
X006684Y004124D01*
X006249Y003526D02*
X006132Y003611D01*
X006064Y003601D01*
X006007Y003522D01*
X006018Y003455D01*
X006136Y003370D01*
X006107Y003330D02*
X006249Y003526D01*
X006107Y003330D02*
X006040Y003320D01*
X006000Y003348D01*
X005669Y002974D02*
X005602Y002964D01*
X005545Y002885D01*
X005555Y002818D01*
X005673Y002733D01*
X005783Y002712D02*
X005840Y002790D01*
X005907Y002801D01*
X005986Y002744D01*
X005996Y002677D01*
X005940Y002598D01*
X005872Y002588D01*
X005794Y002645D01*
X005783Y002712D01*
X005786Y002889D02*
X005669Y002974D01*
X006107Y002656D02*
X005993Y002500D01*
X006071Y002443D02*
X006157Y002560D01*
X006224Y002571D01*
X006235Y002504D01*
X006150Y002386D01*
X006157Y002560D02*
X006146Y002628D01*
X006107Y002656D01*
X005285Y002280D02*
X005245Y002309D01*
X005110Y002288D01*
X005167Y002366D02*
X005053Y002209D01*
X002121Y008942D02*
X002029Y008972D01*
X001998Y009032D01*
X002043Y009170D01*
X002120Y009252D02*
X002212Y009222D01*
X002273Y009253D01*
X002303Y009345D01*
X002272Y009406D01*
X002180Y009436D01*
X002119Y009405D01*
X002089Y009313D01*
X002120Y009252D01*
X002227Y009111D02*
X002182Y008973D01*
X002121Y008942D01*
X002349Y009487D02*
X002165Y009547D01*
X002180Y009593D01*
X002241Y009624D01*
X002210Y009685D01*
X002271Y009716D01*
X002409Y009671D01*
X002379Y009579D02*
X002241Y009624D01*
X001616Y009777D02*
X001432Y009837D01*
X001524Y009807D02*
X001462Y009929D01*
X001477Y009975D01*
X002974Y009488D02*
X002929Y009350D01*
X002960Y009289D01*
X003052Y009259D01*
X003113Y009290D01*
X003158Y009428D01*
X003204Y009413D02*
X002974Y009488D01*
X003204Y009413D02*
X003235Y009352D01*
X003220Y009306D01*
X003571Y009090D02*
X003847Y009000D01*
X003892Y009139D01*
X003861Y009199D01*
X003769Y009229D01*
X003708Y009198D01*
X003663Y009060D01*
X007504Y013324D02*
X007649Y013324D01*
X007698Y013372D01*
X007698Y013469D01*
X007649Y013517D01*
X007504Y013517D01*
X007504Y013614D02*
X007504Y013324D01*
X007601Y014015D02*
X007649Y014015D01*
X007698Y014063D01*
X007698Y014305D01*
X007553Y014305D01*
X007504Y014256D01*
X007504Y014160D01*
X007553Y014111D01*
X007698Y014111D01*
X007698Y014899D02*
X007698Y015044D01*
X007649Y015092D01*
X007601Y015044D01*
X007601Y014899D01*
X007504Y014899D02*
X007504Y015092D01*
X007553Y015092D01*
X007601Y015044D01*
X007403Y015044D02*
X007355Y015092D01*
X007258Y015092D01*
X007210Y015044D01*
X007210Y014947D01*
X007258Y014899D01*
X007355Y014899D01*
X007403Y014947D01*
X007403Y015044D01*
X007108Y015092D02*
X006963Y015092D01*
X006915Y015044D01*
X006915Y014947D01*
X006963Y014899D01*
X007108Y014899D01*
X007553Y015686D02*
X007553Y015880D01*
X007553Y015783D02*
X007650Y015880D01*
X007698Y015880D01*
X012745Y011180D02*
X012790Y011042D01*
X012851Y011011D01*
X012943Y011041D01*
X012974Y011102D01*
X012929Y011240D01*
X013021Y011270D02*
X012745Y011180D01*
X013431Y011301D02*
X013446Y011255D01*
X013507Y011224D01*
X013737Y011299D01*
X013693Y011437D01*
X013632Y011468D01*
X013540Y011438D01*
X013509Y011377D01*
X013553Y011239D01*
X014302Y011483D02*
X014440Y011527D01*
X014471Y011588D01*
X014410Y011619D01*
X014272Y011575D01*
X014242Y011667D02*
X014426Y011726D01*
X014441Y011680D01*
X014410Y011619D01*
X014349Y011808D02*
X014380Y011869D01*
X014350Y011961D01*
X014289Y011992D01*
X014197Y011962D01*
X014166Y011901D01*
X014196Y011809D01*
X014257Y011778D01*
X014349Y011808D01*
X014304Y012103D02*
X014259Y012241D01*
X014198Y012272D01*
X014106Y012242D01*
X014075Y012181D01*
X014120Y012043D01*
X015006Y011863D02*
X015191Y011923D01*
X015220Y011831D02*
X015235Y011785D01*
X015220Y011831D02*
X015099Y011893D01*
D15*
X009150Y007975D02*
X009150Y007875D01*
X008150Y007875D01*
X008150Y007975D01*
X008150Y005675D02*
X008150Y005575D01*
X008150Y005675D02*
X009100Y005675D01*
X009100Y005575D01*
D16*
X010900Y006838D02*
X010900Y007338D01*
X011150Y007588D01*
X011650Y007588D01*
X011900Y007338D01*
X011900Y006838D01*
X006400Y006838D02*
X006400Y007338D01*
X006150Y007588D01*
X005650Y007588D01*
X005400Y007338D01*
X005400Y006838D01*
D17*
X005631Y007900D02*
X006025Y007900D01*
X011131Y007900D02*
X011525Y007900D01*
X011328Y008097D02*
X011328Y007703D01*
D18*
X011400Y010550D02*
X011100Y010550D01*
X011400Y010550D02*
X011700Y010550D01*
X011700Y010750D02*
X011400Y010750D01*
X011100Y010750D01*
D19*
X005900Y010750D02*
X005900Y010550D01*
M02*
