%
M48
M72
T01C0.0320
T02C0.0394
T03C0.0400
T04C0.0440
T05C0.0787
T06C0.1495
%
T01
X7150Y11650
X7150Y10650
X10150Y8650
X10150Y9650
X7150Y9650
X7150Y8650
X10150Y10650
X10150Y11650
X11400Y11150
X11400Y10150
X5900Y10150
X5900Y11150
T02
X8650Y15831
X8650Y15044
X8650Y14256
X8650Y13469
X15483Y10865
X14734Y10622
X13986Y10378
X13237Y10135
X12874Y2844
X12411Y3481
X11949Y4119
X11486Y4756
X4426Y2844
X4889Y3481
X5351Y4119
X5814Y4756
X1817Y10865
X2566Y10622
X3314Y10378
X4063Y10135
X6002Y12286
X4238Y14714
X11298Y12286
X13062Y14714
X15787Y6336
X12933Y7264
X8650Y1150
X8650Y4150
X4367Y7264
X1513Y6336
T03
X7370Y7665
X7370Y5885
X9930Y7665
X9930Y5885
T04
X11400Y7088
X5900Y7088
T05
X5900Y8650
X11400Y8650
T06
X1400Y15900
X15900Y15900
X1400Y1400
X15900Y1400
M30
