G75*
G70*
%OFA0B0*%
%FSLAX24Y24*%
%IPPOS*%
%LPD*%
%AMOC8*
5,1,8,0,0,1.08239X$1,22.5*
%
%ADD10C,0.0000*%
%ADD11C,0.0827*%
%ADD12C,0.1535*%
%ADD13C,0.0634*%
%ADD14C,0.0148*%
%ADD15OC8,0.0740*%
%ADD16C,0.0640*%
%ADD17C,0.0560*%
%ADD18C,0.0780*%
%ADD19OC8,0.0700*%
D10*
X000150Y000857D02*
X000150Y016443D01*
X000152Y016493D01*
X000157Y016544D01*
X000166Y016593D01*
X000179Y016642D01*
X000195Y016690D01*
X000214Y016737D01*
X000236Y016782D01*
X000262Y016825D01*
X000291Y016867D01*
X000323Y016906D01*
X000357Y016943D01*
X000394Y016977D01*
X000433Y017009D01*
X000475Y017038D01*
X000518Y017064D01*
X000563Y017086D01*
X000610Y017105D01*
X000658Y017121D01*
X000707Y017134D01*
X000756Y017143D01*
X000807Y017148D01*
X000857Y017150D01*
X016443Y017150D01*
X016493Y017148D01*
X016544Y017143D01*
X016593Y017134D01*
X016642Y017121D01*
X016690Y017105D01*
X016737Y017086D01*
X016782Y017064D01*
X016825Y017038D01*
X016867Y017009D01*
X016906Y016977D01*
X016943Y016943D01*
X016977Y016906D01*
X017009Y016867D01*
X017038Y016825D01*
X017064Y016782D01*
X017086Y016737D01*
X017105Y016690D01*
X017121Y016642D01*
X017134Y016593D01*
X017143Y016544D01*
X017148Y016493D01*
X017150Y016443D01*
X017150Y000857D01*
X017148Y000807D01*
X017143Y000756D01*
X017134Y000707D01*
X017121Y000658D01*
X017105Y000610D01*
X017086Y000563D01*
X017064Y000518D01*
X017038Y000475D01*
X017009Y000433D01*
X016977Y000394D01*
X016943Y000357D01*
X016906Y000323D01*
X016867Y000291D01*
X016825Y000262D01*
X016782Y000236D01*
X016737Y000214D01*
X016690Y000195D01*
X016642Y000179D01*
X016593Y000166D01*
X016544Y000157D01*
X016493Y000152D01*
X016443Y000150D01*
X000857Y000150D01*
X000807Y000152D01*
X000756Y000157D01*
X000707Y000166D01*
X000658Y000179D01*
X000610Y000195D01*
X000563Y000214D01*
X000518Y000236D01*
X000475Y000262D01*
X000433Y000291D01*
X000394Y000323D01*
X000357Y000357D01*
X000323Y000394D01*
X000291Y000433D01*
X000262Y000475D01*
X000236Y000518D01*
X000214Y000563D01*
X000195Y000610D01*
X000179Y000658D01*
X000166Y000707D01*
X000157Y000756D01*
X000152Y000807D01*
X000150Y000857D01*
X000652Y001400D02*
X000654Y001455D01*
X000660Y001509D01*
X000670Y001563D01*
X000684Y001615D01*
X000701Y001667D01*
X000723Y001717D01*
X000748Y001766D01*
X000776Y001813D01*
X000808Y001857D01*
X000843Y001899D01*
X000881Y001938D01*
X000922Y001975D01*
X000965Y002008D01*
X001010Y002038D01*
X001058Y002065D01*
X001107Y002088D01*
X001158Y002108D01*
X001211Y002124D01*
X001264Y002136D01*
X001318Y002144D01*
X001373Y002148D01*
X001427Y002148D01*
X001482Y002144D01*
X001536Y002136D01*
X001589Y002124D01*
X001642Y002108D01*
X001693Y002088D01*
X001742Y002065D01*
X001790Y002038D01*
X001835Y002008D01*
X001878Y001975D01*
X001919Y001938D01*
X001957Y001899D01*
X001992Y001857D01*
X002024Y001813D01*
X002052Y001766D01*
X002077Y001717D01*
X002099Y001667D01*
X002116Y001615D01*
X002130Y001563D01*
X002140Y001509D01*
X002146Y001455D01*
X002148Y001400D01*
X002146Y001345D01*
X002140Y001291D01*
X002130Y001237D01*
X002116Y001185D01*
X002099Y001133D01*
X002077Y001083D01*
X002052Y001034D01*
X002024Y000987D01*
X001992Y000943D01*
X001957Y000901D01*
X001919Y000862D01*
X001878Y000825D01*
X001835Y000792D01*
X001790Y000762D01*
X001742Y000735D01*
X001693Y000712D01*
X001642Y000692D01*
X001589Y000676D01*
X001536Y000664D01*
X001482Y000656D01*
X001427Y000652D01*
X001373Y000652D01*
X001318Y000656D01*
X001264Y000664D01*
X001211Y000676D01*
X001158Y000692D01*
X001107Y000712D01*
X001058Y000735D01*
X001010Y000762D01*
X000965Y000792D01*
X000922Y000825D01*
X000881Y000862D01*
X000843Y000901D01*
X000808Y000943D01*
X000776Y000987D01*
X000748Y001034D01*
X000723Y001083D01*
X000701Y001133D01*
X000684Y001185D01*
X000670Y001237D01*
X000660Y001291D01*
X000654Y001345D01*
X000652Y001400D01*
X005506Y008650D02*
X005508Y008689D01*
X005514Y008728D01*
X005524Y008766D01*
X005537Y008803D01*
X005554Y008838D01*
X005574Y008872D01*
X005598Y008903D01*
X005625Y008932D01*
X005654Y008958D01*
X005686Y008981D01*
X005720Y009001D01*
X005756Y009017D01*
X005793Y009029D01*
X005832Y009038D01*
X005871Y009043D01*
X005910Y009044D01*
X005949Y009041D01*
X005988Y009034D01*
X006025Y009023D01*
X006062Y009009D01*
X006097Y008991D01*
X006130Y008970D01*
X006161Y008945D01*
X006189Y008918D01*
X006214Y008888D01*
X006236Y008855D01*
X006255Y008821D01*
X006270Y008785D01*
X006282Y008747D01*
X006290Y008709D01*
X006294Y008670D01*
X006294Y008630D01*
X006290Y008591D01*
X006282Y008553D01*
X006270Y008515D01*
X006255Y008479D01*
X006236Y008445D01*
X006214Y008412D01*
X006189Y008382D01*
X006161Y008355D01*
X006130Y008330D01*
X006097Y008309D01*
X006062Y008291D01*
X006025Y008277D01*
X005988Y008266D01*
X005949Y008259D01*
X005910Y008256D01*
X005871Y008257D01*
X005832Y008262D01*
X005793Y008271D01*
X005756Y008283D01*
X005720Y008299D01*
X005686Y008319D01*
X005654Y008342D01*
X005625Y008368D01*
X005598Y008397D01*
X005574Y008428D01*
X005554Y008462D01*
X005537Y008497D01*
X005524Y008534D01*
X005514Y008572D01*
X005508Y008611D01*
X005506Y008650D01*
X011006Y008650D02*
X011008Y008689D01*
X011014Y008728D01*
X011024Y008766D01*
X011037Y008803D01*
X011054Y008838D01*
X011074Y008872D01*
X011098Y008903D01*
X011125Y008932D01*
X011154Y008958D01*
X011186Y008981D01*
X011220Y009001D01*
X011256Y009017D01*
X011293Y009029D01*
X011332Y009038D01*
X011371Y009043D01*
X011410Y009044D01*
X011449Y009041D01*
X011488Y009034D01*
X011525Y009023D01*
X011562Y009009D01*
X011597Y008991D01*
X011630Y008970D01*
X011661Y008945D01*
X011689Y008918D01*
X011714Y008888D01*
X011736Y008855D01*
X011755Y008821D01*
X011770Y008785D01*
X011782Y008747D01*
X011790Y008709D01*
X011794Y008670D01*
X011794Y008630D01*
X011790Y008591D01*
X011782Y008553D01*
X011770Y008515D01*
X011755Y008479D01*
X011736Y008445D01*
X011714Y008412D01*
X011689Y008382D01*
X011661Y008355D01*
X011630Y008330D01*
X011597Y008309D01*
X011562Y008291D01*
X011525Y008277D01*
X011488Y008266D01*
X011449Y008259D01*
X011410Y008256D01*
X011371Y008257D01*
X011332Y008262D01*
X011293Y008271D01*
X011256Y008283D01*
X011220Y008299D01*
X011186Y008319D01*
X011154Y008342D01*
X011125Y008368D01*
X011098Y008397D01*
X011074Y008428D01*
X011054Y008462D01*
X011037Y008497D01*
X011024Y008534D01*
X011014Y008572D01*
X011008Y008611D01*
X011006Y008650D01*
X015152Y015900D02*
X015154Y015955D01*
X015160Y016009D01*
X015170Y016063D01*
X015184Y016115D01*
X015201Y016167D01*
X015223Y016217D01*
X015248Y016266D01*
X015276Y016313D01*
X015308Y016357D01*
X015343Y016399D01*
X015381Y016438D01*
X015422Y016475D01*
X015465Y016508D01*
X015510Y016538D01*
X015558Y016565D01*
X015607Y016588D01*
X015658Y016608D01*
X015711Y016624D01*
X015764Y016636D01*
X015818Y016644D01*
X015873Y016648D01*
X015927Y016648D01*
X015982Y016644D01*
X016036Y016636D01*
X016089Y016624D01*
X016142Y016608D01*
X016193Y016588D01*
X016242Y016565D01*
X016290Y016538D01*
X016335Y016508D01*
X016378Y016475D01*
X016419Y016438D01*
X016457Y016399D01*
X016492Y016357D01*
X016524Y016313D01*
X016552Y016266D01*
X016577Y016217D01*
X016599Y016167D01*
X016616Y016115D01*
X016630Y016063D01*
X016640Y016009D01*
X016646Y015955D01*
X016648Y015900D01*
X016646Y015845D01*
X016640Y015791D01*
X016630Y015737D01*
X016616Y015685D01*
X016599Y015633D01*
X016577Y015583D01*
X016552Y015534D01*
X016524Y015487D01*
X016492Y015443D01*
X016457Y015401D01*
X016419Y015362D01*
X016378Y015325D01*
X016335Y015292D01*
X016290Y015262D01*
X016242Y015235D01*
X016193Y015212D01*
X016142Y015192D01*
X016089Y015176D01*
X016036Y015164D01*
X015982Y015156D01*
X015927Y015152D01*
X015873Y015152D01*
X015818Y015156D01*
X015764Y015164D01*
X015711Y015176D01*
X015658Y015192D01*
X015607Y015212D01*
X015558Y015235D01*
X015510Y015262D01*
X015465Y015292D01*
X015422Y015325D01*
X015381Y015362D01*
X015343Y015401D01*
X015308Y015443D01*
X015276Y015487D01*
X015248Y015534D01*
X015223Y015583D01*
X015201Y015633D01*
X015184Y015685D01*
X015170Y015737D01*
X015160Y015791D01*
X015154Y015845D01*
X015152Y015900D01*
X000652Y015900D02*
X000654Y015955D01*
X000660Y016009D01*
X000670Y016063D01*
X000684Y016115D01*
X000701Y016167D01*
X000723Y016217D01*
X000748Y016266D01*
X000776Y016313D01*
X000808Y016357D01*
X000843Y016399D01*
X000881Y016438D01*
X000922Y016475D01*
X000965Y016508D01*
X001010Y016538D01*
X001058Y016565D01*
X001107Y016588D01*
X001158Y016608D01*
X001211Y016624D01*
X001264Y016636D01*
X001318Y016644D01*
X001373Y016648D01*
X001427Y016648D01*
X001482Y016644D01*
X001536Y016636D01*
X001589Y016624D01*
X001642Y016608D01*
X001693Y016588D01*
X001742Y016565D01*
X001790Y016538D01*
X001835Y016508D01*
X001878Y016475D01*
X001919Y016438D01*
X001957Y016399D01*
X001992Y016357D01*
X002024Y016313D01*
X002052Y016266D01*
X002077Y016217D01*
X002099Y016167D01*
X002116Y016115D01*
X002130Y016063D01*
X002140Y016009D01*
X002146Y015955D01*
X002148Y015900D01*
X002146Y015845D01*
X002140Y015791D01*
X002130Y015737D01*
X002116Y015685D01*
X002099Y015633D01*
X002077Y015583D01*
X002052Y015534D01*
X002024Y015487D01*
X001992Y015443D01*
X001957Y015401D01*
X001919Y015362D01*
X001878Y015325D01*
X001835Y015292D01*
X001790Y015262D01*
X001742Y015235D01*
X001693Y015212D01*
X001642Y015192D01*
X001589Y015176D01*
X001536Y015164D01*
X001482Y015156D01*
X001427Y015152D01*
X001373Y015152D01*
X001318Y015156D01*
X001264Y015164D01*
X001211Y015176D01*
X001158Y015192D01*
X001107Y015212D01*
X001058Y015235D01*
X001010Y015262D01*
X000965Y015292D01*
X000922Y015325D01*
X000881Y015362D01*
X000843Y015401D01*
X000808Y015443D01*
X000776Y015487D01*
X000748Y015534D01*
X000723Y015583D01*
X000701Y015633D01*
X000684Y015685D01*
X000670Y015737D01*
X000660Y015791D01*
X000654Y015845D01*
X000652Y015900D01*
X015152Y001400D02*
X015154Y001455D01*
X015160Y001509D01*
X015170Y001563D01*
X015184Y001615D01*
X015201Y001667D01*
X015223Y001717D01*
X015248Y001766D01*
X015276Y001813D01*
X015308Y001857D01*
X015343Y001899D01*
X015381Y001938D01*
X015422Y001975D01*
X015465Y002008D01*
X015510Y002038D01*
X015558Y002065D01*
X015607Y002088D01*
X015658Y002108D01*
X015711Y002124D01*
X015764Y002136D01*
X015818Y002144D01*
X015873Y002148D01*
X015927Y002148D01*
X015982Y002144D01*
X016036Y002136D01*
X016089Y002124D01*
X016142Y002108D01*
X016193Y002088D01*
X016242Y002065D01*
X016290Y002038D01*
X016335Y002008D01*
X016378Y001975D01*
X016419Y001938D01*
X016457Y001899D01*
X016492Y001857D01*
X016524Y001813D01*
X016552Y001766D01*
X016577Y001717D01*
X016599Y001667D01*
X016616Y001615D01*
X016630Y001563D01*
X016640Y001509D01*
X016646Y001455D01*
X016648Y001400D01*
X016646Y001345D01*
X016640Y001291D01*
X016630Y001237D01*
X016616Y001185D01*
X016599Y001133D01*
X016577Y001083D01*
X016552Y001034D01*
X016524Y000987D01*
X016492Y000943D01*
X016457Y000901D01*
X016419Y000862D01*
X016378Y000825D01*
X016335Y000792D01*
X016290Y000762D01*
X016242Y000735D01*
X016193Y000712D01*
X016142Y000692D01*
X016089Y000676D01*
X016036Y000664D01*
X015982Y000656D01*
X015927Y000652D01*
X015873Y000652D01*
X015818Y000656D01*
X015764Y000664D01*
X015711Y000676D01*
X015658Y000692D01*
X015607Y000712D01*
X015558Y000735D01*
X015510Y000762D01*
X015465Y000792D01*
X015422Y000825D01*
X015381Y000862D01*
X015343Y000901D01*
X015308Y000943D01*
X015276Y000987D01*
X015248Y001034D01*
X015223Y001083D01*
X015201Y001133D01*
X015184Y001185D01*
X015170Y001237D01*
X015160Y001291D01*
X015154Y001345D01*
X015152Y001400D01*
D11*
X011400Y008650D03*
X005900Y008650D03*
D12*
X001400Y015900D03*
X001400Y001400D03*
X015900Y001400D03*
X015900Y015900D03*
D13*
X015392Y011147D02*
X015575Y010583D01*
X014826Y010339D02*
X014643Y010904D01*
X013894Y010661D02*
X014077Y010096D01*
X013328Y009853D02*
X013145Y010417D01*
X008947Y013469D02*
X008353Y013469D01*
X008353Y014256D02*
X008947Y014256D01*
X008947Y015044D02*
X008353Y015044D01*
X008353Y015831D02*
X008947Y015831D01*
X004155Y010417D02*
X003972Y009853D01*
X003223Y010096D02*
X003406Y010661D01*
X002657Y010904D02*
X002474Y010339D01*
X001725Y010583D02*
X001908Y011147D01*
X005574Y004930D02*
X006054Y004581D01*
X005592Y003944D02*
X005111Y004293D01*
X004648Y003656D02*
X005129Y003307D01*
X004666Y002670D02*
X004186Y003019D01*
X011246Y004581D02*
X011726Y004930D01*
X012189Y004293D02*
X011708Y003944D01*
X012171Y003307D02*
X012652Y003656D01*
X013114Y003019D02*
X012634Y002670D01*
D14*
X015618Y006469D02*
X015544Y006543D01*
X015763Y006655D01*
X015994Y006579D01*
X016106Y006360D01*
X016030Y006129D01*
X015811Y006017D01*
X015580Y006093D01*
X015468Y006312D01*
X015544Y006543D01*
X015635Y006465D01*
X015772Y006535D01*
X015916Y006488D01*
X015986Y006351D01*
X015939Y006207D01*
X015802Y006137D01*
X015658Y006184D01*
X015588Y006321D01*
X015635Y006465D01*
X015726Y006387D01*
X015782Y006415D01*
X015838Y006397D01*
X015866Y006341D01*
X015848Y006285D01*
X015792Y006257D01*
X015736Y006275D01*
X015708Y006331D01*
X015726Y006387D01*
X012764Y007397D02*
X012690Y007471D01*
X012909Y007583D01*
X013140Y007507D01*
X013252Y007288D01*
X013176Y007057D01*
X012957Y006945D01*
X012726Y007021D01*
X012614Y007240D01*
X012690Y007471D01*
X012781Y007393D01*
X012918Y007463D01*
X013062Y007416D01*
X013132Y007279D01*
X013085Y007135D01*
X012948Y007065D01*
X012804Y007112D01*
X012734Y007249D01*
X012781Y007393D01*
X012872Y007315D01*
X012928Y007343D01*
X012984Y007325D01*
X013012Y007269D01*
X012994Y007213D01*
X012938Y007185D01*
X012882Y007203D01*
X012854Y007259D01*
X012872Y007315D01*
X011496Y012379D02*
X011570Y012453D01*
X011609Y012211D01*
X011465Y012014D01*
X011223Y011975D01*
X011026Y012119D01*
X010987Y012361D01*
X011131Y012558D01*
X011373Y012597D01*
X011570Y012453D01*
X011468Y012390D01*
X011492Y012239D01*
X011402Y012116D01*
X011251Y012092D01*
X011128Y012182D01*
X011104Y012333D01*
X011194Y012456D01*
X011345Y012480D01*
X011468Y012390D01*
X011365Y012328D01*
X011375Y012267D01*
X011340Y012219D01*
X011279Y012209D01*
X011231Y012244D01*
X011221Y012305D01*
X011256Y012353D01*
X011317Y012363D01*
X011365Y012328D01*
X013260Y014807D02*
X013334Y014881D01*
X013373Y014639D01*
X013229Y014442D01*
X012987Y014403D01*
X012790Y014547D01*
X012751Y014789D01*
X012895Y014986D01*
X013137Y015025D01*
X013334Y014881D01*
X013232Y014818D01*
X013256Y014667D01*
X013166Y014544D01*
X013015Y014520D01*
X012892Y014610D01*
X012868Y014761D01*
X012958Y014884D01*
X013109Y014908D01*
X013232Y014818D01*
X013129Y014756D01*
X013139Y014695D01*
X013104Y014647D01*
X013043Y014637D01*
X012995Y014672D01*
X012985Y014733D01*
X013020Y014781D01*
X013081Y014791D01*
X013129Y014756D01*
X006001Y012523D02*
X005927Y012597D01*
X006169Y012558D01*
X006313Y012361D01*
X006274Y012119D01*
X006077Y011975D01*
X005835Y012014D01*
X005691Y012211D01*
X005730Y012453D01*
X005927Y012597D01*
X005955Y012480D01*
X006106Y012456D01*
X006196Y012333D01*
X006172Y012182D01*
X006049Y012092D01*
X005898Y012116D01*
X005808Y012239D01*
X005832Y012390D01*
X005955Y012480D01*
X005983Y012363D01*
X006044Y012353D01*
X006079Y012305D01*
X006069Y012244D01*
X006021Y012209D01*
X005960Y012219D01*
X005925Y012267D01*
X005935Y012328D01*
X005983Y012363D01*
X004237Y014951D02*
X004163Y015025D01*
X004405Y014986D01*
X004549Y014789D01*
X004510Y014547D01*
X004313Y014403D01*
X004071Y014442D01*
X003927Y014639D01*
X003966Y014881D01*
X004163Y015025D01*
X004191Y014908D01*
X004342Y014884D01*
X004432Y014761D01*
X004408Y014610D01*
X004285Y014520D01*
X004134Y014544D01*
X004044Y014667D01*
X004068Y014818D01*
X004191Y014908D01*
X004219Y014791D01*
X004280Y014781D01*
X004315Y014733D01*
X004305Y014672D01*
X004257Y014637D01*
X004196Y014647D01*
X004161Y014695D01*
X004171Y014756D01*
X004219Y014791D01*
X004122Y007214D02*
X004048Y007288D01*
X004160Y007507D01*
X004391Y007583D01*
X004610Y007471D01*
X004686Y007240D01*
X004574Y007021D01*
X004343Y006945D01*
X004124Y007057D01*
X004048Y007288D01*
X004168Y007279D01*
X004238Y007416D01*
X004382Y007463D01*
X004519Y007393D01*
X004566Y007249D01*
X004496Y007112D01*
X004352Y007065D01*
X004215Y007135D01*
X004168Y007279D01*
X004288Y007269D01*
X004316Y007325D01*
X004372Y007343D01*
X004428Y007315D01*
X004446Y007259D01*
X004418Y007203D01*
X004362Y007185D01*
X004306Y007213D01*
X004288Y007269D01*
X001268Y006286D02*
X001194Y006360D01*
X001306Y006579D01*
X001537Y006655D01*
X001756Y006543D01*
X001832Y006312D01*
X001720Y006093D01*
X001489Y006017D01*
X001270Y006129D01*
X001194Y006360D01*
X001314Y006351D01*
X001384Y006488D01*
X001528Y006535D01*
X001665Y006465D01*
X001712Y006321D01*
X001642Y006184D01*
X001498Y006137D01*
X001361Y006207D01*
X001314Y006351D01*
X001434Y006341D01*
X001462Y006397D01*
X001518Y006415D01*
X001574Y006387D01*
X001592Y006331D01*
X001564Y006275D01*
X001508Y006257D01*
X001452Y006285D01*
X001434Y006341D01*
D15*
X008650Y004150D03*
X008650Y001150D03*
D16*
X007670Y005885D02*
X007070Y005885D01*
X007070Y007665D02*
X007670Y007665D01*
X009630Y007665D02*
X010230Y007665D01*
X010230Y005885D02*
X009630Y005885D01*
D17*
X009890Y008650D02*
X010410Y008650D01*
X010410Y009650D02*
X009890Y009650D01*
X009890Y010650D02*
X010410Y010650D01*
X010410Y011650D02*
X009890Y011650D01*
X007410Y011650D02*
X006890Y011650D01*
X006890Y010650D02*
X007410Y010650D01*
X007410Y009650D02*
X006890Y009650D01*
X006890Y008650D02*
X007410Y008650D01*
D18*
X005900Y007088D02*
X005900Y006348D01*
X011400Y006348D02*
X011400Y007088D01*
D19*
X011400Y010150D03*
X011400Y011150D03*
X005900Y011150D03*
X005900Y010150D03*
M02*
